<?xml version="1.0" standalone="no"?>
<!DOCTYPE svg PUBLIC "-//W3C//DTD SVG 1.1//EN" "http://www.w3.org/Graphics/SVG/1.1/DTD/svg11.dtd" >
<svg xmlns="http://www.w3.org/2000/svg" xmlns:xlink="http://www.w3.org/1999/xlink" version="1.1">
<metadata>
Created by FontForge 20170910 at Sun Oct 19 12:34:44 1997
 By Jimmy Wärting
a_BodoniNovaNarrow *Arsenal Company (c) 1996*  FAX: (095)924-3775; e-Mail: arsenal@itco.msk.su; Phone: (095)924-5811 (Design and Featuring W.Chufarofsky)
</metadata>
<defs>
<font id="ABodoniNovaNrItalic" horiz-adv-x="497" >
  <font-face 
    font-family="a_BodoniNovaNr"
    font-weight="400"
    font-style="italic"
    font-stretch="normal"
    units-per-em="1000"
    panose-1="2 7 6 3 8 7 5 9 3 3"
    ascent="800"
    descent="-200"
    x-height="453"
    cap-height="703"
    bbox="-165 -242 1029 908"
    underline-thickness="63"
    underline-position="-181"
    slope="-13"
    unicode-range="U+0020-2122"
  />
<missing-glyph horiz-adv-x="500" 
d="M63 0v908h375v-908h-375zM125 63h250v783h-250v-783z" />
    <glyph glyph-name=".notdef" horiz-adv-x="500" 
d="M63 0v908h375v-908h-375zM125 63h250v783h-250v-783z" />
    <glyph glyph-name=".null" horiz-adv-x="0" 
 />
    <glyph glyph-name="nonmarkingreturn" horiz-adv-x="250" 
 />
    <glyph glyph-name="space" unicode=" " horiz-adv-x="250" 
 />
    <glyph glyph-name="exclam" unicode="!" horiz-adv-x="332" 
d="M144 160h-22q47 218 59 415q2 38 8 66q14 70 60 70q14 0 29.5 -11.5t15.5 -45.5q0 -37 -88 -273q-36 -98 -62 -221zM65 49q0 58 51 58q23 0 37 -17t14 -41t-13.5 -40.5t-37.5 -16.5t-37.5 16.5t-13.5 40.5z" />
    <glyph glyph-name="quotedbl" unicode="&#x22;" horiz-adv-x="364" 
d="M214 708l-24 -235h-40l-27 235h91zM375 708l-25 -235h-39l-27 235h91z" />
    <glyph glyph-name="numbersign" unicode="#" horiz-adv-x="546" 
d="M346 58h-55l32 144h-112l-33 -144h-54l32 144h-106l16 73h106l35 154h-106l15 74h107l32 143h54l-32 -143h113l33 143h54l-33 -143h107l-16 -74h-106l-35 -154h106l-16 -73h-106zM340 275l34 154h-113l-34 -154h113z" />
    <glyph glyph-name="dollar" unicode="$" 
d="M0 0l41 224l20 5q-2 -18 -2 -35q0 -66 36 -115.5t99 -67.5l62 291q-50 21 -61 27q-35 19 -49 44q-21 38 -21 83q0 105 56 178q62 79 164 79l17 80h26l-18 -80q17 -1 48.5 -20.5t46.5 -19.5q21 0 40 30h14l-28 -168l-16 -2q-25 135 -109 158l-57 -266q66 -24 73 -27
q42 -20 57 -49q20 -38 20 -84q0 -115 -65 -193q-70 -84 -182 -84h2l-20 -94h-26l21 94q-33 0 -75 26.5t-54 26.5q-22 0 -41 -41h-19zM280 296l-61 -286q73 0 125 47.5t52 120.5q0 35 -17 63q-14 22 -44 36q-6 3 -55 19zM284 431l57 263q-58 0 -100 -34.5t-55 -91.5
q-5 -22 -5 -33q0 -45 31 -71q22 -19 72 -33z" />
    <glyph glyph-name="percent" unicode="%" horiz-adv-x="783" 
d="M311 714q50 0 78 -39q26 -34 26 -86q0 -72 -51 -137q-54 -70 -124 -70q-49 0 -77 37q-24 33 -24 84q0 75 48 140q52 71 124 71zM198 467q0 -69 47 -69q66 0 94 127q17 78 17 102q0 44 -15 58t-31 14q-46 0 -75 -68q-14 -33 -30 -106q-7 -32 -7 -58zM195 -12l-23 17
l465 711l24 -17zM587 322q49 0 77 -39q25 -34 25 -86q0 -74 -49 -138q-53 -69 -125 -69q-49 0 -76 37q-25 33 -25 84q0 73 49 139q54 72 124 72zM473 75q0 -70 47 -70q63 0 94 128q18 74 18 101q0 44 -15.5 57.5t-30.5 13.5q-65 0 -96 -127q-17 -69 -17 -103z" />
    <glyph glyph-name="ampersand" unicode="&#x26;" horiz-adv-x="647" 
d="M487 -14q-63 0 -131 138q-124 -138 -213 -138q-53 0 -85 49q-29 43 -29 98q0 140 215 261q-33 95 -33 137q0 64 52.5 126t115.5 62q89 0 89 -87q0 -100 -131 -195l82 -207q33 34 66 69q48 47 72 53q12 3 23 3q49 0 49 -53q0 -67 -59 -67q-42 0 -42 50q0 7 3.5 15t3.5 9
q0 3 -5 3q-8 0 -102 -101q59 -139 117 -139q38 0 90 83l12 -13q-36 -68 -63 -100q-46 -56 -97 -56zM299 596q0 -50 33 -141q115 86 115 172q0 30 -14 50q-17 23 -45 23q-40 0 -64.5 -31.5t-24.5 -72.5zM347 142q-65 127 -99 237q-61 -36 -87 -69q-34 -43 -34 -104
q0 -51 25 -96q30 -53 77 -53q45 0 118 85z" />
    <glyph glyph-name="quotesingle" unicode="'" horiz-adv-x="203" 
d="M216 708l-26 -235h-39l-28 235h93z" />
    <glyph glyph-name="parenleft" unicode="(" horiz-adv-x="358" 
d="M182 -218l-20 -15q-85 161 -85 327q0 306 285 613l18 -8q-104 -142 -166 -346q-60 -197 -60 -380q0 -84 11 -136q5 -22 17 -55z" />
    <glyph glyph-name="parenright" unicode=")" horiz-adv-x="358" 
d="M144 695l21 14q84 -145 84 -326q0 -316 -285 -614l-18 8q103 130 167 345q59 201 59 381q0 125 -28 192z" />
    <glyph glyph-name="asterisk" unicode="*" horiz-adv-x="523" 
d="M339 475l-18 -9q6 -34 19 -70q11 -31 11 -54q0 -43 -43 -43q-48 0 -48 44q0 22 31 122l-19 10q-3 -2 -55 -54q-39 -38 -59 -38q-18 0 -31.5 13t-13.5 31q0 21 10 30t74 24q26 6 59 21v21q-39 15 -66 20t-37 8q-24 7 -32 16.5t-8 32.5q0 18 12 30.5t30 12.5q24 0 85 -63
q17 -18 33 -30l17 10q-6 34 -18 66t-12 55q0 19 14 33.5t33 14.5q44 0 44 -47q0 -19 -12 -59q-15 -49 -18 -63l18 -9l56 54q39 37 60 37q17 0 29.5 -13t12.5 -30q0 -27 -29 -40q-14 -6 -61 -16q-40 -9 -53 -20v-21q35 -14 64 -20t39 -9q24 -7 32 -17t8 -32q0 -17 -13 -29.5
t-30 -12.5q-25 0 -51 30t-64 63z" />
    <glyph glyph-name="plus" unicode="+" horiz-adv-x="523" 
d="M56 382h218v218h46v-218h217v-42h-217v-216h-46v216h-218v42z" />
    <glyph glyph-name="comma" unicode="," horiz-adv-x="375" 
d="M73 -184l-8 19q35 27 66 65q39 49 39 80q0 15 -12 15q-3 0 -9 -1.5t-9 -1.5q-9 0 -25 12t-16 44q0 59 56 59q54 0 54 -79q0 -56 -45 -119q-37 -53 -91 -93z" />
    <glyph glyph-name="hyphen" unicode="-" horiz-adv-x="325" 
d="M70 232v48h194v-48h-194z" />
    <glyph glyph-name="hyphen" unicode="&#x2010;" horiz-adv-x="325" 
d="M70 232v48h194v-48h-194z" />
    <glyph glyph-name="period" unicode="." horiz-adv-x="333" 
d="M65 49q0 58 51 58q23 0 37 -17t14 -41t-13.5 -40.5t-37.5 -16.5t-37.5 16.5t-13.5 40.5z" />
    <glyph glyph-name="slash" unicode="/" horiz-adv-x="493" 
d="M0 -76l493 901h64l-493 -901h-64z" />
    <glyph glyph-name="zero" unicode="0" 
d="M347 714q79 0 118 -81q30 -63 30 -151q0 -128 -56 -260q-63 -148 -161 -207q-45 -27 -87 -27q-24 0 -51 14q-50 26 -75 94q-19 54 -19 122q0 129 56 262q62 148 160 208q43 26 85 26zM122 104q0 -96 74 -96q70 0 112 85q24 47 45 146l49 226q15 69 15 126q0 103 -73 103
q-68 0 -110 -85q-23 -47 -44 -144l-49 -226q-19 -88 -19 -135z" />
    <glyph glyph-name="one" unicode="1" 
d="M151 21l140 652h-86l5 24l192 16l-149 -692h105l-4 -21h-315l4 21h108z" />
    <glyph glyph-name="two" unicode="2" 
d="M416 210h21l-46 -210h-391l14 68l197 173q86 75 118 119q47 63 67 153q11 49 11 82q0 98 -92 98q-37 0 -70 -22q-38 -25 -38 -60q0 -13 16.5 -34.5t16.5 -36.5q0 -32 -22.5 -56.5t-54.5 -24.5q-46 0 -46 54q0 37 27 84q31 53 84 85.5t113 32.5q165 0 165 -145
q0 -98 -55 -171q-38 -49 -136 -122l-240 -178h232q23 0 40 4q29 7 47 43q8 16 22 64z" />
    <glyph glyph-name="three" unicode="3" 
d="M234 394l-5 16q84 67 139 118q38 34 108 108l-1 4q-39 -15 -223 -15q-74 0 -106 -88l-15 2l61 186h16v-4q0 -18 43 -18h242q29 0 34 22h16q-13 -59 -46 -98q-67 -81 -225 -202l1 -4q27 12 79 12q49 0 77 -43q24 -37 24 -89q0 -68 -34.5 -146t-103 -122.5t-155.5 -44.5
q-62 0 -101 27q-44 31 -44 90q0 34 17.5 60.5t50.5 26.5t33 -35q0 -36 -25 -58.5t-25 -36.5q0 -27 36 -43q28 -12 59 -12q123 0 169 218q16 76 16 99q0 48 -35 62q-20 8 -77 8z" />
    <glyph glyph-name="four" unicode="4" 
d="M210 21l39 179h-210l6 30l363 490h49l-103 -477h95l-9 -43h-95l-39 -179h71l-4 -21h-245l4 21h78zM258 243l73 340l-256 -340h183z" />
    <glyph glyph-name="five" unicode="5" 
d="M264 593q-18 0 -64 7l-51 -186q49 39 85 46q32 6 46 6q90 0 129 -47t39 -114q0 -53 -30 -132q-39 -102 -129 -156q-49 -29 -119 -29q-57 0 -96 28q-45 31 -45 86q0 42 19 75q23 39 62 39q45 0 45 -44q0 -40 -32.5 -69t-33.5 -37v-8q0 -50 67 -50q118 0 156 180l24 114
q5 24 5 42q0 92 -89 92q-64 0 -126 -68l-7 2l94 344q66 -35 144 -35q68 0 140 34l7 -12q-31 -50 -106 -81q-68 -27 -134 -27z" />
    <glyph glyph-name="six" unicode="6" 
d="M176 354q36 54 77 71.5t70 17.5q63 0 100 -54q32 -47 32 -113q0 -83 -41 -152q-35 -59 -88 -96q-58 -40 -122 -40q-80 0 -120 60q-33 50 -33 134q0 61 18 143q34 155 95 252q85 137 212 137q75 0 106 -30t31 -67q0 -34 -19 -63q-22 -33 -54 -33q-44 0 -44 45
q0 23 21.5 55t21.5 45q0 29 -67 29q-75 0 -118 -71q-26 -45 -48 -139zM127 108q0 -52 29 -76t57 -24q89 0 121 149.5t32 178.5q0 81 -64 81q-24 0 -47 -12q-76 -39 -96 -131l-27 -123q-5 -23 -5 -43z" />
    <glyph glyph-name="seven" unicode="7" 
d="M216 0h-99q34 155 159 329q49 66 97 131q56 77 84 140h-257q-31 0 -50 -24q-11 -13 -28 -52h-19l62 179h346q9 0 9 -8q0 -53 -138 -270q-112 -176 -166 -425z" />
    <glyph glyph-name="eight" unicode="8" 
d="M214 369q-47 46 -58 61q-22 33 -22 79q0 59 38 111q36 49 91 76q38 18 91 18q59 0 98 -27q45 -31 45 -87q0 -123 -154 -187q56 -51 72 -73q31 -42 31 -95q0 -64 -40 -129q-34 -55 -86 -90q-57 -38 -117 -38q-76 0 -122 35q-50 40 -50 114q0 138 183 232zM325 428
q107 57 107 176q0 90 -83 90q-56 0 -94 -33q-41 -34 -41 -89q0 -48 41 -83zM234 353q-51 -28 -80 -74q-19 -30 -44 -99q-11 -31 -11 -65q0 -49 28.5 -78t77.5 -29q67 0 112 56q43 52 43 121q0 59 -38 92z" />
    <glyph glyph-name="nine" unicode="9" 
d="M369 349q-36 -54 -78 -72t-71 -18q-63 0 -100 54q-32 48 -32 114q0 106 73 194q76 93 180 93q80 0 120 -60q33 -51 33 -135q0 -109 -51 -262t-149 -228q-53 -41 -126 -41q-74 0 -105.5 30.5t-31.5 67.5q0 33 20 62q21 33 53 33q45 0 45 -45q0 -20 -21.5 -54.5
t-21.5 -44.5q0 -30 67 -30q120 0 167 211zM418 595q0 41 -22 69q-25 30 -65 30q-87 0 -120 -151l-23 -106q-9 -41 -9 -69q0 -83 65 -83q50 0 93 48q39 44 50 96l26 123q5 24 5 43z" />
    <glyph glyph-name="colon" unicode=":" horiz-adv-x="336" 
d="M144 416q0 24 14 40.5t37 16.5t37.5 -17t14.5 -40q0 -24 -14 -41t-38 -17t-37.5 16.5t-13.5 41.5zM65 49q0 58 51 58q23 0 37 -17t14 -41t-13.5 -40.5t-37.5 -16.5t-37.5 16.5t-13.5 40.5z" />
    <glyph glyph-name="semicolon" unicode=";" horiz-adv-x="374" 
d="M182 416q0 23 14.5 40t37.5 17q22 0 36.5 -17t14.5 -40q0 -24 -13.5 -41t-37.5 -17q-23 0 -37.5 17t-14.5 41zM76 -184l-11 19q30 24 63 63q42 49 42 74q0 23 -11 23q-3 0 -9.5 -1.5t-9.5 -1.5q-41 0 -41 56q0 26 15.5 42.5t41.5 16.5q54 0 54 -79q0 -54 -45 -118
q-38 -54 -89 -94z" />
    <glyph glyph-name="less" unicode="&#x3c;" horiz-adv-x="523" 
d="M26 352l445 258l27 -52l-354 -206l354 -204l-27 -52z" />
    <glyph glyph-name="equal" unicode="=" horiz-adv-x="523" 
d="M40 436h460v-45h-460v45zM40 286h460v-45h-460v45z" />
    <glyph glyph-name="greater" unicode="&#x3e;" horiz-adv-x="523" 
d="M518 352l-444 -256l-29 52l355 204l-355 206l29 52z" />
    <glyph glyph-name="question" unicode="?" horiz-adv-x="457" 
d="M180 174h-25q20 97 52 160q17 33 51 84q42 62 54 83q22 37 22 89q0 102 -62 102q-41 0 -80.5 -32.5t-39.5 -72.5q0 -16 10 -19h24q33 0 33 -37q0 -26 -20.5 -48.5t-46.5 -22.5q-21 0 -33 25q-9 20 -9 44q0 70 49.5 126t118.5 56q60 0 98 -27q43 -31 43 -89
q0 -90 -66 -170l-126 -136q-34 -43 -47 -115zM89 49q0 25 14 41.5t38 16.5t38 -16.5t14 -41.5q0 -24 -14 -40.5t-38 -16.5q-23 0 -37.5 16.5t-14.5 40.5z" />
    <glyph glyph-name="at" unicode="@" horiz-adv-x="919" 
d="M729 543l-80 -263q-20 -66 -20 -80q0 -36 16.5 -48.5t29.5 -12.5q55 0 106 50q43 42 66 100q19 48 19 107q0 157 -119 252q-110 89 -270 89q-96 0 -168 -36q-102 -51 -163 -151t-61 -214q0 -166 114.5 -284.5t280.5 -118.5q162 0 264 88l22 -26q-128 -95 -283 -95
q-112 0 -196 42q-163 82 -222 248q-28 78 -28 147q0 182 127 307.5t310 125.5q177 0 297 -97q129 -104 129 -277q0 -111 -60 -196q-67 -95 -174 -95q-76 0 -114 60q-69 -51 -139 -51q-74 0 -118 55q-40 51 -40 127q0 109 76.5 187t185.5 78q72 0 115 -63l17 45h80zM610 438
q-7 38 -31 64q-27 28 -64 28q-31 0 -61 -20q-49 -33 -78 -98q-26 -60 -26 -124q0 -62 17 -100.5t67 -38.5q40 0 68 21q37 27 40 38z" />
    <glyph glyph-name="A" unicode="A" horiz-adv-x="525" 
d="M328 21l-27 217h-175q-21 -42 -41 -83q-34 -73 -34 -99q0 -35 48 -35l-3 -21h-147l3 21q23 0 49 26q22 21 34 47l294 617h6l95 -690h60l-4 -21h-239l3 21h78zM297 259l-35 267l-128 -267h163z" />
    <glyph glyph-name="B" unicode="B" horiz-adv-x="600" 
d="M144 703h261q172 0 172 -121q0 -84 -61 -138q-56 -50 -142 -59v-2q156 -32 156 -146q0 -77 -41 -135.5t-113 -84.5q-46 -17 -111 -17h-273l5 21h67l142 660h-67zM301 681l-62 -290h64q84 0 129 64q39 55 39 143q0 47 -23.5 65t-72.5 18h-74zM235 370l-76 -349h98
q83 0 128 77q38 63 38 152q0 120 -118 120h-70z" />
    <glyph glyph-name="C" unicode="C" horiz-adv-x="558" 
d="M465 238h19l-58 -238h-19q0 47 -19 47q-6 0 -59 -27.5t-100 -27.5q-85 0 -134 76q-43 65 -43 155q0 39 17 121q24 116 77 205q64 105 158 147q49 22 93 22q36 0 66 -16.5t42 -16.5q26 0 42 33h19l-40 -227h-19q4 72 4 64q0 143 -113 143q-22 0 -51 -13
q-106 -48 -152 -260l-38 -175q-11 -51 -11 -94q0 -60 23 -98q28 -46 85 -46q72 0 134 80q45 58 77 146z" />
    <glyph glyph-name="D" unicode="D" horiz-adv-x="668" 
d="M65 21l142 661h-66l4 21h253q108 0 170 -69.5t62 -178.5q0 -132 -51 -241q-57 -121 -164 -178q-68 -36 -147 -36h-275l4 21h68zM304 682l-144 -661h117q39 0 84 29q97 62 145 247q25 96 25 231q0 76 -28 113q-32 41 -106 41h-93z" />
    <glyph glyph-name="E" unicode="E" horiz-adv-x="580" 
d="M65 21l142 661h-66l4 21h427l-47 -218h-20q8 40 8 87q0 49 -30 79.5t-79 30.5h-100l-65 -296h31q94 0 121 120h17l-56 -263h-19q7 28 7 50q0 50 -30 64q-18 8 -75 8l-75 -344h124q73 0 125 66q34 44 66 132h20l-50 -219h-452l4 21h68z" />
    <glyph glyph-name="F" unicode="F" horiz-adv-x="573" 
d="M65 21l142 661h-66l4 21h431l-49 -226h-20q10 46 10 96q0 109 -113 109h-100l-65 -296h55q95 0 118 117h20l-58 -269h-19q6 22 6 53q0 78 -67 78h-59l-75 -344h77l-5 -21h-239l4 21h68z" />
    <glyph glyph-name="G" unicode="G" horiz-adv-x="626" 
d="M372 295h203l-5 -21h-46l-49 -229h-19q4 19 4 22q0 17 -17 17t-39 -17q-18 -15 -35 -29q-31 -24 -65 -36q-29 -10 -70 -10q-94 0 -141 82q-38 66 -38 168q0 133 58 248q45 90 114 152q83 74 169 74q32 0 71 -16.5t62 -16.5q25 0 41 33h21l-43 -227l-22 2q5 30 5 47
q0 68 -34 110q-36 46 -102 46q-151 0 -220 -339q-27 -132 -27 -200q0 -146 88 -146q97 0 143 90q21 41 50 175h-62z" />
    <glyph glyph-name="H" unicode="H" horiz-adv-x="700" 
d="M234 365l-75 -344h60l-4 -21h-223l5 21h67l143 661h-67l4 21h223l-4 -21h-61l-64 -296h255l65 296h-62l5 21h224l-4 -21h-68l-142 -661h66l-4 -21h-224l5 21h60l75 344h-255z" />
    <glyph glyph-name="I" unicode="I" horiz-adv-x="359" 
d="M66 19l142 661h-66l4 21h228l-4 -21h-65l-144 -661h66l-5 -21h-228l4 21h68z" />
    <glyph glyph-name="J" unicode="J" horiz-adv-x="374" 
d="M186 703h236l-4 -21h-65l-115 -526q-19 -88 -70 -128t-111 -40q-54 0 -79.5 35.5t-25.5 75.5q0 97 71 97q38 0 38 -60q0 -22 -27 -47.5t-27 -32.5q0 -47 49 -47q13 0 24 5q35 16 62 142l113 526h-74z" />
    <glyph glyph-name="K" unicode="K" horiz-adv-x="635" 
d="M305 681l-62 -286h60q27 0 48 6q43 12 71 85q23 67 45 133q29 75 72 89q18 6 44 6q30 0 46.5 -19.5t16.5 -49.5q0 -53 -23.5 -76.5t-50.5 -23.5q-41 0 -41 53q0 20 13.5 41t13.5 33q0 13 -12 13q-38 0 -67 -95q-31 -101 -38 -118q-33 -78 -76 -85v-3q73 -4 104 -41
t31 -111q0 -38 -13 -106q-14 -73 -14 -82q0 -19 12 -19q39 0 75 64l14 -15q-44 -82 -116 -82q-86 0 -86 88q0 33 15 99.5t15 104.5q0 90 -81 90h-83l-76 -353h66l-4 -21h-229l4 21h67l142 660h-66l5 22h228l-5 -22h-65z" />
    <glyph glyph-name="L" unicode="L" horiz-adv-x="505" 
d="M66 21l143 661h-66l4 21h228l-4 -21h-65l-144 -661h93q84 0 139 63q40 44 76 139h20l-58 -223h-437l4 21h67z" />
    <glyph glyph-name="M" unicode="M" horiz-adv-x="774" 
d="M345 157l286 546h163l-5 -21h-67l-143 -661h67l-4 -21h-230l5 21h66l131 601l-329 -622h-12l-64 632l-113 -522q-6 -28 -6 -43q0 -46 51 -46l-4 -21h-156l4 21q70 0 90 90l108 496q5 23 5 38q0 27 -22 34q-10 3 -45 3l5 21h175z" />
    <glyph glyph-name="N" unicode="N" horiz-adv-x="602" 
d="M111 703h155l194 -495l84 402q3 14 3 21q0 51 -60 51l4 21h166l-5 -21q-43 0 -64 -29q-14 -20 -25 -70l-128 -595h-12l-237 609l-102 -480q-7 -33 -7 -56q0 -12 12 -26t49 -14l-5 -21h-167v21q73 0 94 96l108 503q1 5 1 7q0 24 -19 39.5t-43 15.5z" />
    <glyph glyph-name="O" unicode="O" horiz-adv-x="637" 
d="M249 -8q-100 0 -156 77q-50 68 -50 172q0 116 35 205q68 174 206 241q64 31 121 31q103 0 158 -71q50 -64 50 -170q0 -143 -54 -260q-61 -134 -177 -192q-66 -33 -133 -33zM401 698q-122 0 -198 -206q-60 -161 -60 -309q0 -171 110 -171q23 0 56 13q121 48 182 330
q22 102 22 170q0 173 -112 173z" />
    <glyph glyph-name="P" unicode="P" horiz-adv-x="578" 
d="M63 21l143 661h-77l5 21h257q81 0 127 -37q51 -40 51 -119q0 -190 -152 -248q-42 -16 -100 -19q-13 -1 -103 -1l-55 -258h80l-4 -21h-243l4 21h67zM301 682l-83 -383h60q94 0 147 95q43 79 43 181q0 107 -106 107h-61z" />
    <glyph glyph-name="Q" unicode="Q" horiz-adv-x="637" 
d="M479 -55l13 -18q-61 -89 -138 -89q-27 0 -70.5 53t-71.5 53q-29 0 -63.5 -15.5t-52.5 -37.5l-10 18q70 72 141 81l1 2q-91 11 -140 86q-44 66 -44 162q0 122 37 212q71 172 210 237q63 29 114 29q104 0 159 -71q50 -64 50 -171q0 -114 -33 -204q-64 -175 -196 -245
q-62 -33 -117 -33l2 -2h-2q31 0 73 -49.5t54 -49.5q45 0 84 52zM401 698q-122 0 -198 -206q-60 -161 -60 -309q0 -171 110 -171q23 0 56 13q124 49 183 330q22 104 22 170q0 173 -113 173z" />
    <glyph glyph-name="R" unicode="R" horiz-adv-x="610" 
d="M159 21h67l-5 -21h-229l5 21h67l143 661h-67l4 21h233q101 0 154 -26.5t53 -105.5q0 -173 -208 -198l-1 -2q58 -13 82 -31q33 -26 33 -78q0 -31 -13 -96.5t-13 -97.5q0 -41 19 -41q16 0 42 25q22 20 33 39l10 -19q-49 -84 -125 -84q-43 0 -60 22q-16 19 -16 63q0 14 4 40
q7 39 14 77q8 47 8 78q0 93 -89 93h-71zM302 682l-64 -300h59q78 0 121 45q37 40 55 121q6 28 6 49q0 50 -32 69q-26 16 -79 16h-66z" />
    <glyph glyph-name="S" unicode="S" horiz-adv-x="511" 
d="M0 4l41 224h19q6 -215 155 -215q66 0 112 54q43 51 43 118q0 72 -64 101q-59 23 -119 45q-64 37 -64 128q0 77 33 142q37 72 101 103q29 14 63 14q38 0 55 -5q11 -3 37 -18q18 -10 42 -10q14 0 26 25h15l-37 -173h-16q-3 162 -123 162q-61 0 -104 -54q-39 -51 -39 -114
q0 -65 81 -92l83 -28q92 -31 92 -139q0 -98 -56 -183q-64 -97 -156 -97q-37 0 -64 9q-38 13 -70 36q-11 8 -23 8q-29 0 -43 -41h-20z" />
    <glyph glyph-name="T" unicode="T" horiz-adv-x="556" 
d="M160 21l143 661q-182 0 -225 -201h-21l49 222h499l-48 -222h-21q9 36 9 73q0 128 -145 128l-144 -661h77l-4 -21h-247l5 21h73z" />
    <glyph glyph-name="U" unicode="U" horiz-adv-x="609" 
d="M105 703h234l-4 -21h-66l-109 -503q-5 -23 -5 -45q0 -55 33.5 -85t89.5 -30q144 0 187 191l89 396q5 22 5 36q0 40 -66 40l4 21h171l-4 -21q-45 0 -65 -27q-15 -18 -26 -68l-89 -391q-47 -208 -237 -208q-82 0 -130 36q-55 40 -55 119q0 25 6 53l105 486h-72z" />
    <glyph glyph-name="V" unicode="V" horiz-adv-x="511" 
d="M29 703h245l-3 -21h-68l61 -498l185 390q24 51 24 77q0 31 -49 31l4 21h161l-4 -21q-42 0 -68 -28q-15 -17 -38 -66l-280 -593h-9l-101 687h-63z" />
    <glyph glyph-name="W" unicode="W" horiz-adv-x="831" 
d="M43 703h231l-3 -21h-65l65 -493l162 338l-18 155h-60l4 21h228l-3 -21h-67l65 -501l172 350q33 67 33 104q0 17 -2 24q-7 23 -78 23l4 21h203l-4 -21q-20 0 -32 -4q-38 -12 -98 -134l-271 -549h-6l-65 495l-243 -495h-6l-87 687h-63z" />
    <glyph glyph-name="X" unicode="X" horiz-adv-x="568" 
d="M528 21l-3 -21h-236l4 21h66l-90 298l-145 -191q-26 -34 -26 -64q0 -36 66 -43l-4 -21h-199v22q43 9 72 30q24 19 54 59l172 233l-109 338h-57l3 21h228l-4 -21h-55l76 -243l122 164q17 23 17 46q0 33 -52 33l3 21h188l-4 -21q-52 -4 -81 -27q-17 -13 -55 -65l-129 -176
l123 -393h55z" />
    <glyph glyph-name="Y" unicode="Y" horiz-adv-x="522" 
d="M293 333l151 228q32 48 32 72q0 49 -60 49l5 21h184l-5 -21q-18 0 -28 -3q-28 -8 -102 -119l-170 -255l-62 -284h68l-5 -21h-229l4 21h68l55 258l-88 403h-52l5 21h231l-4 -21h-69z" />
    <glyph glyph-name="Z" unicode="Z" horiz-adv-x="540" 
d="M148 524h-21l28 179h413l-443 -682h163q103 0 177 166h17l-49 -187h-433l456 682h-130q-83 0 -123 -39q-38 -35 -55 -119z" />
    <glyph glyph-name="bracketleft" unicode="[" horiz-adv-x="442" 
d="M218 -198l-6 -26h-194l199 927h207l-6 -27h-109l-188 -874h97z" />
    <glyph glyph-name="backslash" unicode="\" horiz-adv-x="490" 
d="M426 -75h-68l-293 893h67z" />
    <glyph glyph-name="bracketright" unicode="]" horiz-adv-x="430" 
d="M224 676l5 27h182l-199 -927h-194l6 26h97l189 874h-86z" />
    <glyph glyph-name="asciicircum" unicode="^" horiz-adv-x="443" 
d="M222 614l-74 -85h-81l155 179l154 -179h-82z" />
    <glyph glyph-name="underscore" unicode="_" horiz-adv-x="443" 
d="M-10 -210v75h463v-75h-463z" />
    <glyph glyph-name="grave" unicode="`" horiz-adv-x="187" 
d="M185 703l57 -146h-14l-172 146h129z" />
    <glyph glyph-name="a" unicode="a" horiz-adv-x="477" 
d="M325 388h1l13 65h86l-89 -391q-3 -13 -3 -22q0 -20 18 -20q23 0 63 78l15 -12q-51 -98 -114 -98q-61 0 -61 80q-42 -80 -109 -80q-58 0 -91 61q-28 51 -28 114q0 86 38 161q42 80 114 119q41 22 84 22q54 0 63 -77zM312 367q0 29 -11 53q-14 29 -41 29q-83 0 -116 -154
l-25 -118q-13 -61 -13 -96q0 -75 49 -75q28 0 63 39.5t58 137.5q36 151 36 184z" />
    <glyph glyph-name="b" unicode="b" horiz-adv-x="433" 
d="M155 395q46 70 100 70q140 0 140 -190q0 -99 -69 -190q-73 -97 -168 -97q-64 0 -101 60q-31 51 -31 119q0 35 17 106l95 397h-109l3 14h190zM307 339q0 88 -30 97q-10 3 -31 3q-81 0 -128 -195q-27 -111 -27 -146q0 -34 16 -61q19 -31 51 -31q64 0 103 138q46 163 46 195
z" />
    <glyph glyph-name="c" unicode="c" horiz-adv-x="426" 
d="M327 289q-51 0 -51 54q0 24 15 42.5t15 31.5q0 32 -37 32q-31 0 -69.5 -39.5t-58.5 -130.5q-29 -134 -29 -170q0 -103 76 -103q67 0 123 93l12 -13q-61 -98 -145 -98q-152 0 -152 188q0 118 62 199q69 90 183 90q49 0 78 -24q32 -27 32 -75q0 -77 -54 -77z" />
    <glyph glyph-name="d" unicode="d" horiz-adv-x="505" 
d="M354 -12q-43 0 -55 29q-8 17 -8 67q-61 -96 -125 -96q-140 0 -140 154q0 108 60 208q69 115 170 115q76 0 99 -87l61 292h-102l3 14h188l-131 -622q-4 -19 -4 -22q0 -20 18 -20q21 0 63 77l15 -11q-47 -98 -112 -98zM333 352q0 33 -16 58q-19 29 -50 29q-50 0 -89 -81
q-13 -28 -42 -121q-24 -76 -24 -135q0 -93 61 -93q33 0 63 38q42 53 70 145q27 88 27 160z" />
    <glyph glyph-name="e" unicode="e" horiz-adv-x="419" 
d="M344 86q-75 -98 -170 -98q-148 0 -148 179q0 113 65 201q72 97 181 97q50 0 80 -28.5t30 -78.5q0 -63 -46 -95q-29 -21 -103 -40l-114 -29q-17 -73 -17 -93q0 -38 21 -65q23 -30 60 -30q26 0 68 20t80 74zM273 449q-16 0 -37 -15q-75 -54 -99 -161l-14 -62l97 27
q47 13 74 107q13 45 13 67q0 37 -34 37z" />
    <glyph glyph-name="f" unicode="f" horiz-adv-x="262" 
d="M108 438h-84l3 15h84q14 122 63.5 182.5t113.5 60.5q41 0 71.5 -26.5t30.5 -66.5q0 -61 -48 -61q-22 0 -36.5 15.5t-14.5 38.5q0 12 8 30.5t8 28.5q0 19 -23 19q-51 0 -70 -118l-17 -103h105l-1 -15h-107l-61 -368q-21 -127 -52 -194q-52 -114 -144 -114q-50 0 -76 30
t-26 62q0 61 48 61t48 -53q0 -18 -3 -27q-10 -29 -10 -32q0 -20 34 -20q10 0 32 25t34 94z" />
    <glyph glyph-name="g" unicode="g" horiz-adv-x="428" 
d="M248 465q33 0 59 -12h101q28 0 28 -17q0 -23 -27 -23q-11 0 -62 17q22 -22 22 -84q0 -87 -53 -150q-56 -67 -141 -67q-20 0 -42 6q-41 -18 -41 -39t50 -26.5t100 -9.5q59 -9 75 -34q10 -17 10 -44q0 -99 -69 -155q-65 -52 -166 -52q-146 0 -146 100q0 83 88 135
q-10 17 -10 35q0 68 73 103q-42 36 -42 101q0 85 54.5 150.5t138.5 65.5zM245 445q-36 0 -66 -56q-21 -39 -33 -89q-10 -42 -10 -80q0 -72 43 -72q23 0 43 21q32 33 51 96q17 55 17 108q0 72 -45 72zM9 -112q0 -44 28 -69t72 -25q52 0 104 37q57 40 57 90q0 40 -55 44l-91 7
q-45 3 -68 18q-47 -50 -47 -102z" />
    <glyph glyph-name="h" unicode="h" horiz-adv-x="486" 
d="M0 0l153 670h-103l3 14h184l-81 -365q78 146 179 146q48 0 70 -37q11 -19 11 -49q0 -39 -7 -67l-60 -237q-6 -24 -6 -35q0 -20 17 -20q23 0 64 78l13 -12q-48 -97 -113 -97q-28 0 -43.5 21t-15.5 49q0 30 9 65l55 215q4 16 4 38q0 49 -33 49q-46 0 -103 -81
q-52 -74 -56 -91l-55 -254h-86z" />
    <glyph glyph-name="i" unicode="i" horiz-adv-x="236" 
d="M15 453h170l-89 -391q-3 -13 -3 -22q0 -20 17 -20q26 0 61 77l18 -11q-48 -97 -114 -97q-61 0 -61 67q0 19 11 68l70 314h-82zM222 669q0 -35 -16 -61q-19 -32 -51 -32q-38 0 -38 31q0 37 16 63q19 30 54 30t35 -31z" />
    <glyph glyph-name="j" unicode="j" horiz-adv-x="231" 
d="M35 453h170l-102 -454q-19 -86 -41 -122q-36 -59 -105 -59q-35 0 -60 18t-25 52q0 52 43 52q44 0 44 -47q0 -10 -6 -23.5t-6 -18.5q0 -12 10 -12q30 0 43 58q7 42 14 83q4 8 9 24q1 11 5 33l90 401h-87zM243 669q0 -33 -18 -61q-21 -32 -52 -32q-37 0 -37 31q0 35 17 62
q20 31 53 31q37 0 37 -31z" />
    <glyph glyph-name="k" unicode="k" horiz-adv-x="453" 
d="M237 684l-96 -424q7 4 26 4q7 0 20 -1t20 -1q46 0 64 53q13 48 26 97q20 53 70 53q67 0 67 -72q0 -25 -12 -42q-14 -20 -38 -20q-45 0 -45 52q0 16 7 24t7 18q0 13 -10 13q-8 0 -22 -20q-12 -16 -21 -60q-11 -51 -18 -67q-14 -33 -42 -38v-2q84 -20 84 -89q0 -30 -12 -97
q-3 -17 -3 -21q0 -24 9 -24q26 0 69 79l14 -13q-47 -97 -115 -97q-61 0 -61 84q0 20 9.5 58t9.5 58q0 31 -3 39q-6 17 -30 17q-8 0 -24 -5t-25 -5q-16 0 -24 4l-53 -239h-85l153 670h-103l3 14h184z" />
    <glyph glyph-name="l" unicode="l" horiz-adv-x="237" 
d="M237 684l-142 -622q-3 -13 -3 -22q0 -20 18 -20q29 0 83 124l16 -9q-56 -146 -135 -146q-61 0 -61 70q0 17 11 65l125 546h-104l3 14h189z" />
    <glyph glyph-name="m" unicode="m" horiz-adv-x="736" 
d="M199 453l-31 -136q34 56 77 95q57 53 106 53q71 0 71 -86q0 -31 -6 -55h2q30 51 76 91q56 50 103 50q72 0 72 -86q0 -23 -11 -67l-62 -250q-2 -8 -2 -22q0 -20 15 -20q12 0 21 11q43 54 63 113l18 -9q-60 -146 -136 -146q-60 0 -60 70q0 30 9 65l56 215q5 19 5 49
q0 15 -9.5 26.5t-23.5 11.5q-33 0 -78 -52q-35 -41 -55 -83q-9 -18 -19 -37l-57 -254h-86l77 339q6 26 6 43q0 16 -8.5 30t-23.5 14q-26 0 -63 -35q-29 -28 -48 -59q-39 -64 -42 -78l-57 -254h-85l100 438h-88l4 15h170z" />
    <glyph glyph-name="n" unicode="n" horiz-adv-x="498" 
d="M199 453l-31 -135q84 147 190 147q73 0 73 -86q0 -27 -10 -67l-63 -250q-3 -12 -3 -22q0 -20 12 -20q27 0 68 78l14 -12q-24 -46 -43 -66q-30 -31 -70 -31q-60 0 -60 70q0 26 10 65l55 215q7 27 7 49q0 15 -9.5 26.5t-24.5 11.5q-57 0 -129 -116q-27 -44 -30 -56
l-58 -254h-84l100 438h-88l4 15h170z" />
    <glyph glyph-name="o" unicode="o" horiz-adv-x="452" 
d="M167 -12q-141 0 -141 152q0 99 36 178q42 91 123 130q44 21 87 21q141 0 141 -156q0 -101 -35 -178q-41 -92 -124 -128q-44 -19 -87 -19zM111 97q0 -91 62 -91q89 0 137 221q18 83 18 133q0 90 -61 90q-45 0 -77 -44q-26 -36 -63 -181q-16 -63 -16 -128z" />
    <glyph glyph-name="p" unicode="p" horiz-adv-x="480" 
d="M176 363q29 47 47 67q34 35 70 35q86 0 121 -65q26 -49 26 -144q0 -99 -54 -178q-62 -90 -156 -90q-48 0 -76 37q-26 34 -26 83h-2l-52 -258q-4 -20 -4 -27q0 -19 15 -23q5 -2 31 -2l-3 -16h-79q-27 0 -35 2q-20 5 -20 23q0 6 6 34l128 597h-88l3 15h170zM220 6
q77 0 107 158l22 115q5 26 5 52q0 118 -60 118q-32 0 -69 -42q-30 -33 -47 -96q-6 -19 -22 -105q-9 -47 -9 -76q0 -47 14 -79q19 -45 59 -45z" />
    <glyph glyph-name="q" unicode="q" horiz-adv-x="465" 
d="M371 453h75l-137 -623q-3 -14 -3 -18q0 -12 16 -14q-2 0 25 0l-3 -16h-87q-39 0 -39 28q0 5 5 27l51 223q-45 -71 -106 -71q-68 0 -105 41t-37 109q0 112 56 210q66 116 170 116q74 0 94 -77zM329 354q0 36 -16 59q-19 26 -53 26q-37 0 -67 -48q-22 -35 -34 -81
q-27 -107 -28 -111q-14 -63 -14 -113q0 -72 60 -72q79 0 124 193q28 120 28 147z" />
    <glyph glyph-name="r" unicode="r" horiz-adv-x="329" 
d="M29 453h157l-10 -61q38 73 107 73q32 0 52 -22.5t20 -55.5q0 -26 -15 -44t-40 -18q-42 0 -42 47q0 11 8.5 25.5t8.5 25.5q0 12 -12 12q-68 0 -104 -162l-61 -273h-85l100 438h-87z" />
    <glyph glyph-name="s" unicode="s" horiz-adv-x="374" 
d="M130 -12q-74 0 -102 30t-28 71q0 25 13 42.5t37 17.5q46 0 46 -47q0 -15 -9.5 -27.5t-9.5 -29.5q0 -41 56 -41q35 0 64.5 30t29.5 65q0 36 -33 63l-83 69q-38 32 -38 92q0 18 11 44q19 45 63 71t95 26q45 0 75.5 -23t30.5 -66q0 -62 -54 -62q-37 0 -37 45q0 14 10.5 29
t10.5 30q0 30 -46 30q-33 0 -54.5 -24t-21.5 -58q0 -46 29 -69l89 -71q39 -31 39 -93q0 -67 -60 -108q-53 -36 -123 -36z" />
    <glyph glyph-name="t" unicode="t" horiz-adv-x="251" 
d="M26 438l3 15h83l29 122l92 37l-35 -159h92l-3 -15h-93l-79 -352q-8 -36 -8 -48q0 -18 15 -18q27 0 66 78l13 -12q-48 -97 -113 -97q-59 0 -59 66q0 29 9 69l71 314h-83z" />
    <glyph glyph-name="u" unicode="u" horiz-adv-x="492" 
d="M430 99l15 -13q-48 -97 -114 -97q-60 0 -60 70q0 18 13 79q-31 -54 -78 -96q-59 -53 -108 -53q-73 0 -73 97q0 19 8 55l66 297h-77l3 15h161l-74 -340q-5 -23 -5 -50q0 -36 30 -36q53 0 122 104q34 51 38 68l55 239h-57l2 15h173l-2 -15h-30l-85 -376q-3 -13 -3 -22
q0 -20 12 -20q7 0 13 2q18 6 55 77z" />
    <glyph glyph-name="v" unicode="v" horiz-adv-x="406" 
d="M18 453h172l-57 -282q-14 -69 -14 -109q0 -45 25 -45q24 0 60 25q63 44 105 120t42 152q0 40 -8.5 48.5t-12.5 8.5q-5 0 -15.5 -2t-15.5 -2q-31 0 -31 48q0 50 52 50q27 0 48 -30t21 -89q0 -109 -80 -228q-88 -129 -192 -129q-45 0 -65 27t-20 52q0 36 8 75l61 295h-86z
" />
    <glyph glyph-name="w" unicode="w" horiz-adv-x="608" 
d="M22 453h165l-75 -340q-4 -18 -4 -50q0 -36 31 -36q30 0 74 44q33 33 57 71l59 296h-78l3 15h162l-61 -323q-6 -32 -6 -60q0 -53 41 -53q32 0 63 30q47 45 78.5 123t31.5 144q0 57 -30 57q-53 0 -53 44q0 50 43 50q37 0 56 -43q14 -33 14 -76q0 -119 -61 -228
q-71 -129 -180 -129q-56 0 -74 31q-14 23 -14 84q-88 -115 -165 -115q-74 0 -74 90q0 21 9 62l65 297h-81z" />
    <glyph glyph-name="x" unicode="x" horiz-adv-x="531" 
d="M451 98l12 -12q-37 -55 -64 -74q-34 -24 -93 -24q-61 0 -75 106l-11 81l-46 -79q-63 -108 -116 -108q-39 0 -56 29t-17 57q0 26 16 46.5t42 20.5q21 0 36 -17t15 -38q0 -23 -17 -41t-17 -29q0 -10 13 -10q24 0 58.5 57t83.5 138l-19 152q-7 56 -13.5 69.5t-20.5 13.5
q-21 0 -85 -84l-11 11q67 102 130 102q79 0 88 -86l8 -80q83 166 147 166q31 0 54 -21t23 -51q0 -24 -13.5 -46t-36.5 -22q-52 0 -52 56q0 16 12 29t12 23q0 14 -7 14q-49 0 -136 -174l24 -179q5 -37 9 -49q10 -29 34 -29q33 0 89 82z" />
    <glyph glyph-name="y" unicode="y" horiz-adv-x="465" 
d="M24 -223q-27 0 -43.5 16.5t-16.5 43.5q0 22 12 39.5t33 17.5q38 0 38 -45q0 -11 -9.5 -24t-9.5 -21q0 -4 15 -4q46 0 93 75q20 32 57 114l-53 374q-8 58 -28 58q-8 0 -32.5 -24.5t-42.5 -70.5l-18 9q27 67 66 99t71 32q57 0 68 -74l36 -253l91 210q51 117 101 117
q20 0 32.5 -14t12.5 -35q0 -20 -10.5 -37t-29.5 -17q-33 0 -33 30q0 7 3.5 15t3.5 9q0 4 -6 4q-18 0 -59 -92l-108 -242q-29 -65 -51 -120q-49 -124 -103 -165q-32 -25 -80 -25z" />
    <glyph glyph-name="z" unicode="z" horiz-adv-x="405" 
d="M317 183q36 0 36 -58q0 -68 -40 -103t-110 -35q-11 0 -138 34q-22 6 -36 6q-8 0 -17 -12q0 -33 -21 -33q-17 0 -17 18t65 95l250 297q-62 -24 -138 -24q-37 0 -76 12l-26 -55h-20l53 144q160 -26 212 -26q29 0 47 7q15 34 27 34q19 0 19 -15q0 -11 -13 -26l-315 -359
l1 -2h-1q37 13 68 13q24 0 87 -25.5t80 -25.5q10 0 18 10t8 21q0 6 -19 31t-19 35q0 42 35 42z" />
    <glyph glyph-name="braceleft" unicode="{" horiz-adv-x="326" 
d="M274 774l4 -36q-71 -21 -71 -102q0 -22 2.5 -66.5t2.5 -66.5q0 -82 -22 -131q-26 -58 -91 -95q65 -35 91 -94q22 -50 22 -132q0 -18 -2.5 -54t-2.5 -54v-26q0 -37 17 -65q20 -32 54 -36l-4 -36q-141 18 -141 213q0 13 1 38.5t1 38.5q0 180 -85 185v43q85 8 85 186
q0 13 -1 39t-1 39q0 194 141 212z" />
    <glyph glyph-name="bar" unicode="|" horiz-adv-x="443" 
d="M181 -218v1124h81v-1124h-81z" />
    <glyph glyph-name="braceright" unicode="}" horiz-adv-x="326" 
d="M52 -220l-4 36q34 5 53 37q17 27 17 64q0 22 -2.5 67t-2.5 67q0 82 22 132q27 59 92 94q-65 37 -92 94q-22 50 -22 132q0 14 2.5 41t2.5 40v52q0 85 -70 102l4 36q82 -11 115 -73q26 -48 26 -139q0 -13 -1 -39t-1 -39q0 -101 25 -141.5t59 -44.5v-43q-84 -7 -84 -185
q0 -13 1 -38.5t1 -38.5q0 -91 -26 -140q-33 -62 -115 -73z" />
    <glyph glyph-name="asciitilde" unicode="~" horiz-adv-x="443" 
d="M76 352h-30q16 47 45 79q36 39 78 39q36 0 103 -21t95 -21q16 0 34 39h28q-45 -114 -100 -114q-31 0 -100.5 19t-97.5 19q-39 0 -55 -39z" />
    <glyph glyph-name="currency" unicode="&#xa4;" horiz-adv-x="523" 
d="M486 603l36 -36l-79 -77q49 -60 49 -138q0 -79 -49 -137l79 -77l-36 -37l-76 80q-59 -48 -139 -48q-78 0 -137 48l-77 -80l-36 37l80 77q-50 57 -50 137q0 79 50 138l-80 77l36 36l77 -79q59 48 137 48q80 0 139 -48zM102 352q0 -72 48.5 -123t120.5 -51q73 0 122 50.5
t49 123.5t-49.5 124.5t-121.5 51.5q-71 0 -120 -52t-49 -124z" />
    <glyph glyph-name="brokenbar" unicode="&#xa6;" horiz-adv-x="443" 
d="M181 906h81v-495h-81v495zM181 -218v500h81v-500h-81z" />
    <glyph glyph-name="section" unicode="&#xa7;" horiz-adv-x="519" 
d="M103 352q0 109 96 199q-12 35 -12 67q0 70 47.5 124t116.5 54q54 0 90 -40.5t36 -94.5q0 -23 -12 -39q-13 -19 -35 -19q-50 0 -50 53q0 23 20.5 44t20.5 29q0 12 -15 30t-55 18q-41 0 -70 -26.5t-29 -66.5q0 -65 38 -115l104 -136q42 -55 42 -109q0 -25 -1 -38
q-6 -78 -89 -179q17 -31 17 -78q0 -79 -53 -133.5t-131 -54.5q-60 0 -101 50q-37 46 -37 108q0 28 14 48.5t41 20.5q51 0 51 -55q0 -29 -33 -53q-8 -6 -19 -23q-2 -6 -2 -13q0 -28 30 -47q26 -17 56 -17q52 0 83.5 29.5t31.5 81.5q0 67 -38 116l-111 144q-42 54 -42 121z
M334 128q55 50 55 122q0 37 -41 90l-124 160l-19 28q-47 -50 -47 -113q0 -45 38 -97z" />
    <glyph glyph-name="copyright" unicode="&#xa9;" horiz-adv-x="811" 
d="M67 350q0 151 105.5 257.5t255.5 106.5q151 0 256 -106.5t105 -257.5q0 -149 -106 -255.5t-255 -106.5q-151 0 -256 105.5t-105 256.5zM92 350q0 -138 99 -235t237 -97q137 0 237 97.5t100 234.5q0 138 -99 236t-238 98q-138 0 -237 -98t-99 -236zM557 435h-13
q-6 54 -35 86q-32 36 -84 36q-59 0 -88 -63q-22 -48 -22 -114q0 -236 118 -236q50 0 89 44q34 38 44 91h12l-5 -147h-12v3q1 17 -14 17q-3 0 -34 -13.5t-81 -13.5q-96 0 -151 60t-55 156q0 95 51 162q56 74 148 74q47 0 67 -7t34 -7q8 0 14 14h11z" />
    <glyph glyph-name="guillemotleft" unicode="&#xab;" horiz-adv-x="404" 
d="M249 8l-10 -10q-68 130 -174 226q134 84 268 222l7 -9q-74 -111 -171 -214q53 -107 80 -215zM338 106l-15 -4q-39 73 -98 122q80 47 152 119l12 -4q-39 -64 -90 -115q31 -54 39 -118z" />
    <glyph glyph-name="logicalnot" unicode="&#xac;" horiz-adv-x="523" 
d="M477 300v-195h-39v161h-395v34h434z" />
    <glyph glyph-name="registered" unicode="&#xae;" horiz-adv-x="818" 
d="M366 163h47v-12h-174v12h47v373h-47v13h174q168 0 168 -89q0 -79 -123 -96v-2q95 -22 105 -77q3 -30 11 -91q4 -27 19 -27q6 0 17.5 6.5t14.5 11.5l8 -8q-31 -32 -68 -32q-40 0 -57 17q-14 14 -25 106q-10 81 -44 86q-7 1 -27 1h-46v-192zM366 367h36q91 0 91 93
q0 44 -20.5 60t-65.5 16h-41v-169zM67 351q0 151 105.5 258t255.5 107q106 0 196 -58.5t135 -154.5q31 -67 31 -152q0 -150 -106 -256.5t-256 -106.5t-255.5 106.5t-105.5 256.5zM92 351q0 -137 99.5 -235t236.5 -98q139 0 238 97.5t99 235.5q0 140 -98.5 237t-238.5 97
q-97 0 -180.5 -53.5t-125.5 -141.5q-30 -63 -30 -139z" />
    <glyph glyph-name="degree" unicode="&#xb0;" horiz-adv-x="272" 
d="M65 638q0 39 23.5 68t62.5 29t63 -29t24 -68t-24 -67q-25 -31 -63 -31q-39 0 -62.5 29t-23.5 69zM89 638q0 -28 17.5 -52t44.5 -24q30 0 47 24q15 21 15 52q0 30 -15 52q-18 24 -47 24t-45.5 -23t-16.5 -53z" />
    <glyph glyph-name="plusminus" unicode="&#xb1;" horiz-adv-x="523" 
d="M286 188h-45v161h-215v46h215v171h45v-171h211v-46h-211v-161zM497 106v-44h-471v44h471z" />
    <glyph glyph-name="paragraph" unicode="&#xb6;" horiz-adv-x="523" 
d="M530 725h-83v-894h-76v894h-79v-894h-76v544q-79 2 -136.5 56t-57.5 132q0 79 57 133.5t137 54.5h314v-26z" />
    <glyph glyph-name="guillemotright" unicode="&#xbb;" horiz-adv-x="404" 
d="M155 437l11 9q68 -130 173 -223q-149 -99 -268 -225l-7 10q74 111 170 215q-54 112 -79 214zM66 338l14 4q41 -72 99 -119q-84 -54 -152 -122l-12 4q38 60 90 118q-31 54 -39 115z" />
    <glyph glyph-name="mu" unicode="&#xb5;" horiz-adv-x="523" 
d="M452 18h65v-18h-166v61q-63 -75 -143 -75q-48 0 -79 35h-4q11 -49 31 -148q5 -27 5 -41q0 -74 -61 -74q-57 0 -57 74q0 22 5 61q8 56 23 167q5 42 5 68v329h100v-362q0 -33 19.5 -55.5t52.5 -22.5q58 0 103 71v369h101v-439z" />
    <glyph glyph-name="mu" unicode="&#x3bc;" horiz-adv-x="523" 
d="M452 18h65v-18h-166v61q-63 -75 -143 -75q-48 0 -79 35h-4q11 -49 31 -148q5 -27 5 -41q0 -74 -61 -74q-57 0 -57 74q0 22 5 61q8 56 23 167q5 42 5 68v329h100v-362q0 -33 19.5 -55.5t52.5 -22.5q58 0 103 71v369h101v-439z" />
    <glyph glyph-name="afii10023" unicode="&#x401;" horiz-adv-x="579" 
d="M467 766q-46 0 -46 31q0 65 66 65q45 0 45 -30q0 -26 -18 -50q-12 -16 -47 -16zM296 766q-44 0 -44 34q0 62 65 62q45 0 45 -31q0 -25 -18 -49q-12 -16 -48 -16zM64 21l143 661h-67l4 21h427l-47 -218h-20q8 38 8 69q0 128 -109 128h-101l-64 -296h31q55 0 84 34
q24 28 37 86h17l-56 -263h-18q6 30 6 50q0 50 -30 64q-18 8 -75 8l-75 -344h124q24 0 48 7q84 24 144 191h19l-50 -219h-452l5 21h67z" />
    <glyph glyph-name="afii10017" unicode="&#x410;" horiz-adv-x="525" 
d="M328 21l-27 217h-175q-21 -42 -41 -83q-34 -73 -34 -99q0 -35 48 -35l-3 -21h-147l3 21q23 0 49 26q22 21 34 47l294 617h6l95 -690h60l-4 -21h-239l3 21h78zM297 259l-35 267l-128 -267h163z" />
    <glyph glyph-name="afii10018" unicode="&#x411;" horiz-adv-x="609" 
d="M302 681l-59 -275q123 0 161 -7q99 -18 124 -86q9 -29 9 -67q0 -125 -92 -190q-81 -56 -211 -56h-241l4 21h68l142 660h-67l4 22h434l-37 -196h-19q0 64 -9 97q-15 56 -58 70q-22 7 -59 7h-94zM239 385l-79 -364h77q111 0 158 75q38 60 38 178q0 67 -39 92
q-31 19 -102 19h-53z" />
    <glyph glyph-name="afii10019" unicode="&#x412;" horiz-adv-x="600" 
d="M144 703h261q172 0 172 -121q0 -84 -61 -138q-56 -50 -142 -59v-2q156 -32 156 -146q0 -77 -41 -135.5t-113 -84.5q-46 -17 -111 -17h-273l5 21h67l142 660h-67zM301 681l-62 -290h64q84 0 129 64q39 55 39 143q0 47 -23.5 65t-72.5 18h-74zM235 370l-76 -349h98
q83 0 128 77q38 63 38 152q0 120 -118 120h-70z" />
    <glyph glyph-name="afii10020" unicode="&#x413;" horiz-adv-x="520" 
d="M74 21l133 661h-67l4 21h426l-45 -227h-20q0 138 -22 172t-106 34h-75l-133 -661h74l-4 -21h-236l3 21h68z" />
    <glyph glyph-name="afii10021" unicode="&#x414;" horiz-adv-x="611" 
d="M453 -192h-20q0 133 -23 165q-20 27 -99 27h-187q-37 0 -61 -7q-73 -21 -128 -185h-24l55 213h18q22 0 48 22q41 34 74 102q29 59 42 120l69 322q5 23 5 36q0 34 -15.5 46.5t-51.5 12.5l4 21h471l-4 -21h-67l-143 -661h82zM320 21l144 661h-139q-67 0 -83 -75l-74 -343
q-35 -160 -104 -243h256z" />
    <glyph glyph-name="afii10022" unicode="&#x415;" horiz-adv-x="584" 
d="M486 220h20l-47 -220h-485l4 19h86l141 664h-84l4 20h445l-40 -192l-21 1q2 16 2 29q0 57 -25 96q-29 46 -83 46h-93l-63 -289h74q49 0 83 36q31 31 42 82l19 -1l-57 -267h-19v57q-4 33 -23 51q-23 22 -56 22h-67l-76 -355h95q86 0 144 61q44 47 80 140z" />
    <glyph glyph-name="afii10024" unicode="&#x416;" horiz-adv-x="898" 
d="M813 89l15 -14q-53 -83 -112 -83q-38 0 -58.5 25.5t-20.5 64.5q0 18 2 28l27 129q3 14 3 29q0 41 -22.5 68.5t-59.5 27.5h-75l-75 -345h84l-3 -19h-273l4 19h84l74 345h-77q-45 0 -77.5 -28.5t-46.5 -73.5l-46 -152q-36 -118 -120 -118q-61 0 -85 88l19 9q13 -58 38 -58
q17 0 27 35l48 167q20 70 69 104q43 30 120 39v3q-32 15 -32 60q0 14 4 32q28 128 28 152q0 17 -11 36.5t-27 19.5q-13 0 -13 -17q0 -13 6 -30.5t6 -31.5q0 -61 -61 -61q-60 0 -60 82q0 42 28 66t71 24q81 0 81 -107q0 -28 -14.5 -81.5t-14.5 -81.5q0 -57 55 -57h89l64 299
h-83l4 20h272l-5 -20h-84l-63 -299h77q72 0 89 65l36 136q17 66 31 87q25 39 76 39q39 0 63 -23.5t24 -62.5q0 -33 -14 -57q-17 -29 -48 -29q-61 0 -61 74q0 14 7.5 27.5t7.5 17.5q0 21 -13 21q-27 0 -53 -101l-34 -134q-14 -54 -60 -70v-3q128 -13 128 -132q0 -22 -8 -60
l-25 -119v-5q0 -25 16 -25q23 0 58 59z" />
    <glyph glyph-name="afii10025" unicode="&#x417;" horiz-adv-x="543" 
d="M125 489h-17l68 229h17q1 -22 27 -22q20 0 49 7q46 11 49 12q16 3 47 3q168 0 168 -121q0 -189 -181 -212l-1 -3q125 -15 125 -134q0 -95 -53.5 -160t-146.5 -86q-44 -10 -102 -10q-65 0 -112 30q-56 35 -56 96q0 46 19 80q24 41 66 41q47 0 47 -58q0 -37 -38.5 -59.5
t-38.5 -37.5q0 -24 27 -48t90 -24q68 0 116 51q43 46 59 116q9 38 9 88q0 78 -50 96q-18 6 -119 6l4 21h78q72 0 113 83q34 67 34 147q0 76 -76 76q-149 0 -221 -207z" />
    <glyph glyph-name="afii10026" unicode="&#x418;" horiz-adv-x="742" 
d="M193 122l380 490l15 69h-66l6 22h240l-5 -22h-73l-142 -660h72l-4 -21h-241l6 21h64l119 554l-381 -495l-13 -59h65l-4 -21h-239l4 21h72l142 660h-72l6 22h238l-5 -22h-64z" />
    <glyph glyph-name="afii10027" unicode="&#x419;" horiz-adv-x="742" 
d="M193 122l380 490l15 69h-58l5 22h233l-5 -22h-73l-142 -660h72l-4 -21h-241l6 21h64l119 554l-381 -495l-13 -59h65l-4 -21h-239l4 21h72l142 660h-72l6 22h230l-5 -22h-56zM598 908l20 -11q-28 -74 -64 -105q-42 -38 -115 -38q-38 0 -59 24t-21 63q0 65 49 65
q26 0 42.5 -15t16.5 -40q0 -14 -11 -32t-11 -27q0 -15 13 -15q87 0 140 131z" />
    <glyph glyph-name="afii10028" unicode="&#x41a;" horiz-adv-x="635" 
d="M305 681l-62 -286h60q27 0 48 6q43 12 71 85q23 67 45 133q29 75 72 89q18 6 44 6q30 0 46.5 -19.5t16.5 -49.5q0 -53 -23.5 -76.5t-50.5 -23.5q-41 0 -41 53q0 20 13.5 41t13.5 33q0 13 -12 13q-38 0 -67 -95q-31 -101 -38 -118q-33 -78 -76 -85v-3q73 -4 104 -41
t31 -111q0 -38 -13 -106q-14 -73 -14 -82q0 -19 12 -19q39 0 75 64l14 -15q-44 -82 -116 -82q-86 0 -86 88q0 33 15 99.5t15 104.5q0 90 -81 90h-83l-76 -353h66l-4 -21h-229l4 21h67l142 660h-66l5 22h228l-5 -22h-65z" />
    <glyph glyph-name="afii10029" unicode="&#x41b;" horiz-adv-x="645" 
d="M148 703h520l-4 -21h-72l-144 -661h73l-5 -21h-246l4 21h72l143 661h-113q-29 0 -48 -5q-54 -14 -80 -136l-63 -299q-43 -205 -109 -242q-22 -12 -48 -12q-34 0 -56.5 21t-22.5 55q0 98 68 98q45 0 45 -49q0 -31 -16 -49t-16 -33q0 -5 5 -11t9 -6q13 0 28 11
q49 36 104 293l48 223q11 51 11 81q0 43 -26 54q-15 6 -65 6z" />
    <glyph glyph-name="afii10030" unicode="&#x41c;" horiz-adv-x="774" 
d="M345 157l286 546h163l-5 -21h-67l-143 -661h67l-4 -21h-230l5 21h66l131 601l-329 -622h-12l-64 632l-113 -522q-6 -28 -6 -43q0 -46 51 -46l-4 -21h-156l4 21q70 0 90 90l108 496q5 23 5 38q0 27 -22 34q-10 3 -45 3l5 21h175z" />
    <glyph glyph-name="afii10031" unicode="&#x41d;" horiz-adv-x="700" 
d="M234 365l-75 -344h60l-4 -21h-223l5 21h67l143 661h-77l4 21h233l-4 -21h-61l-64 -296h255l65 296h-62l5 21h224l-4 -21h-68l-142 -661h66l-4 -21h-224l5 21h60l75 344h-255z" />
    <glyph glyph-name="afii10032" unicode="&#x41e;" horiz-adv-x="637" 
d="M249 -8q-100 0 -156 77q-50 68 -50 172q0 116 35 205q68 174 206 241q64 31 121 31q103 0 158 -71q50 -64 50 -170q0 -143 -54 -260q-61 -134 -177 -192q-66 -33 -133 -33zM401 698q-122 0 -198 -206q-60 -161 -60 -309q0 -171 110 -171q23 0 56 13q121 48 182 330
q22 102 22 170q0 173 -112 173z" />
    <glyph glyph-name="afii10033" unicode="&#x41f;" horiz-adv-x="700" 
d="M302 682l-143 -661h60l-4 -21h-223l5 21h67l143 661h-78l5 21h591l-4 -21h-68l-142 -661h66l-4 -21h-224l5 21h60l144 661h-256z" />
    <glyph glyph-name="afii10034" unicode="&#x420;" horiz-adv-x="578" 
d="M63 21l143 661h-77l5 21h257q81 0 127 -37q51 -40 51 -119q0 -190 -152 -248q-42 -16 -100 -19q-13 -1 -103 -1l-55 -258h80l-4 -21h-243l4 21h67zM301 682l-83 -383h60q94 0 147 95q43 79 43 181q0 107 -106 107h-61z" />
    <glyph glyph-name="afii10035" unicode="&#x421;" horiz-adv-x="558" 
d="M465 238h19l-58 -238h-19q0 47 -19 47q-6 0 -59 -27.5t-100 -27.5q-85 0 -134 76q-43 65 -43 155q0 39 17 121q24 116 77 205q64 105 158 147q49 22 93 22q36 0 66 -16.5t42 -16.5q26 0 42 33h19l-40 -227h-19q4 72 4 64q0 143 -113 143q-22 0 -51 -13
q-106 -48 -152 -260l-38 -175q-11 -51 -11 -94q0 -60 23 -98q28 -46 85 -46q72 0 134 80q45 58 77 146z" />
    <glyph glyph-name="afii10036" unicode="&#x422;" horiz-adv-x="556" 
d="M160 21l143 661q-182 0 -225 -201h-21l49 222h499l-48 -222h-21q9 36 9 73q0 128 -145 128l-144 -661h77l-4 -21h-247l5 21h73z" />
    <glyph glyph-name="afii10037" unicode="&#x423;" horiz-adv-x="542" 
d="M456 703h210l-3 -20q-18 0 -31 -4q-37 -11 -114 -155l-232 -431q-54 -101 -137 -101q-43 0 -68 28t-25 72q0 34 20 53.5t54 19.5q46 0 46 -55q0 -31 -22 -49.5t-22 -34.5q0 -17 24 -17q56 0 110 93l-165 581h-70l3 20h240l-3 -20h-66l125 -463l162 301q32 59 32 107
q0 55 -53 55h-19z" />
    <glyph glyph-name="afii10038" unicode="&#x424;" horiz-adv-x="812" 
d="M539 707l-17 -80q134 0 204.5 -39.5t70.5 -137.5q0 -337 -388 -337h2l-20 -92h71l-4 -21h-245l4 21h70l20 92q-271 0 -271 189q0 165 111 250q100 75 271 75l18 80h-71l5 21h245l-5 -21h-71zM144 280q0 -145 169 -145h-1l102 473q-66 -1 -112 -25q-85 -45 -118 -125
q-17 -42 -30 -108q-10 -51 -10 -70zM683 453q0 76 -44 115.5t-121 39.5l-102 -473q68 0 113 22q107 53 134 174q3 17 10 52q10 52 10 70z" />
    <glyph glyph-name="afii10039" unicode="&#x425;" horiz-adv-x="568" 
d="M270 309l-143 -181q-26 -33 -26 -53q0 -54 66 -56l-3 -19h-190v19q59 20 110 85l179 227l-108 352h-68l3 20h240l-3 -20h-63l79 -261l125 165q23 30 23 52q0 44 -63 44l2 20h190v-20q-50 -8 -77 -37q-32 -35 -48 -56l-143 -191l113 -380h72l-5 -19h-251l4 19h71z" />
    <glyph glyph-name="afii10040" unicode="&#x426;" horiz-adv-x="731" 
d="M437 21l143 661h-64l4 21h230l-4 -21h-62l-144 -661h91l-44 -205h-23q10 55 10 73q0 68 -38 89.5t-104 21.5h-445l5 21h72l143 661h-78l5 21h244l-4 -21h-64l-144 -661h271z" />
    <glyph glyph-name="afii10041" unicode="&#x427;" horiz-adv-x="607" 
d="M390 387l64 295h-65l4 21h239l-4 -21h-71l-144 -661h71l-4 -21h-248l4 21h75l73 336q-90 -36 -162 -36q-144 0 -144 120q0 21 5 44l43 197h-66l5 21h232l-4 -21h-64l-41 -188q-8 -37 -8 -56q0 -88 84 -88q63 0 126 37z" />
    <glyph glyph-name="afii10042" unicode="&#x428;" horiz-adv-x="950" 
d="M138 703h236l-4 -21h-64l-143 -661h195l143 661h-64l4 21h233l-4 -21h-66l-144 -661h195l144 661h-66l5 21h236l-4 -21h-69l-143 -661h72l-4 -21h-842l4 21h72l143 661h-69z" />
    <glyph glyph-name="afii10043" unicode="&#x429;" horiz-adv-x="950" 
d="M847 21l-44 -205h-20q8 34 8 73q0 64 -33 89q-28 22 -95 22h-679l4 21h72l143 661h-69l4 21h236l-4 -21h-64l-143 -661h195l143 661h-64l4 21h233l-4 -21h-66l-144 -661h195l144 661h-66l5 21h236l-4 -21h-69l-143 -661h89z" />
    <glyph glyph-name="afii10044" unicode="&#x42a;" horiz-adv-x="631" 
d="M375 682l-60 -286h94q109 0 151.5 -44.5t42.5 -111.5q0 -112 -70.5 -176t-183.5 -64h-304l4 21h80l143 661h-18q-148 0 -196 -206h-19l48 227h364l-4 -21h-72zM311 377l-79 -356h91q34 0 65 17q107 58 107 249q0 90 -103 90h-81z" />
    <glyph glyph-name="afii10045" unicode="&#x42b;" horiz-adv-x="877" 
d="M580 21l142 661h-71l4 21h239l-5 -21h-63l-144 -661h65l-5 -21h-238l4 21h72zM66 21l143 661h-72l5 21h246l-4 -21h-72l-62 -286q12 0 40 1h41q94 0 139 -23q63 -34 63 -122q0 -129 -85 -194q-76 -58 -209 -58h-249l4 21h72zM246 377l-77 -356h72q78 0 131.5 67.5
t53.5 199.5q0 49 -23.5 69t-73.5 20h-83z" />
    <glyph glyph-name="afii10046" unicode="&#x42c;" horiz-adv-x="568" 
d="M66 21l143 661h-72l5 21h246l-4 -21h-72l-62 -286q119 0 127 -1q74 -5 113 -32q49 -35 49 -111q0 -252 -284 -252h-265l4 21h72zM246 377l-77 -356h89q96 0 140 91q34 69 34 176q0 89 -103 89h-83z" />
    <glyph glyph-name="afii10047" unicode="&#x42d;" horiz-adv-x="560" 
d="M101 207q27 0 42.5 -18t15.5 -46q0 -40 -28 -58t-28 -33q0 -13 17.5 -27.5t63.5 -14.5q29 0 53 7q76 22 124 227l26 112q-46 -43 -66 -43q-24 0 -55.5 29t-43.5 29q-19 0 -39 -21q-16 -18 -24 -39l-19 14q50 107 109 107q28 0 57.5 -30.5t44.5 -30.5q16 0 44 17
q29 139 29 185q0 48 -23 82q-26 38 -72 38q-116 0 -182 -192h-20l36 210h20q3 -28 32 -28q15 0 36 9q29 12 35 13q22 6 51 6q88 0 138 -66q46 -59 46 -150q0 -177 -78 -324q-95 -179 -256 -179q-64 0 -107 32q-49 36 -49 98q0 36 18 60.5t52 24.5z" />
    <glyph glyph-name="afii10048" unicode="&#x42e;" horiz-adv-x="952" 
d="M551 -8q-101 0 -157 77q-50 68 -50 172q0 63 17 143h-117l-78 -363h84l-3 -21h-265l4 21h78l140 661h-91l5 21h280l-5 -21h-83l-62 -280h117q22 76 61 136q50 77 119 125q79 55 162 55q102 0 158 -71q50 -65 50 -170q0 -115 -32 -205q-63 -178 -200 -247
q-65 -33 -132 -33zM703 698q-121 0 -198 -206q-61 -162 -61 -309q0 -171 111 -171q122 0 199 204q60 161 60 309q0 173 -111 173z" />
    <glyph glyph-name="afii10049" unicode="&#x42f;" horiz-adv-x="637" 
d="M415 362h-85q-19 0 -36 -4q-47 -11 -76 -94q-24 -77 -47 -155q-32 -88 -84 -108q-23 -9 -52 -9q-74 0 -85 74l18 10q2 -15 11 -30q10 -18 23 -18q33 0 57 76q44 135 51 151q42 87 112 107q22 6 48 8v3q-131 20 -131 135q0 83 56 139t170 56h303l-3 -20h-78l-141 -664h84
l-5 -19h-265l5 19h76zM418 381l66 302h-95q-55 0 -83 -23.5t-42 -78.5q-23 -90 -23 -122q0 -78 93 -78h84z" />
    <glyph glyph-name="afii10065" unicode="&#x430;" horiz-adv-x="477" 
d="M325 388h1l13 65h86l-89 -391q-3 -13 -3 -22q0 -20 18 -20q23 0 63 78l15 -12q-51 -98 -114 -98q-61 0 -61 80q-42 -80 -109 -80q-58 0 -91 61q-28 51 -28 114q0 86 38 161q42 80 114 119q41 22 84 22q54 0 63 -77zM312 367q0 29 -11 53q-14 29 -41 29q-83 0 -116 -154
l-25 -118q-13 -61 -13 -96q0 -75 49 -75q28 0 63 39.5t58 137.5q36 151 36 184z" />
    <glyph glyph-name="afii10066" unicode="&#x431;" horiz-adv-x="455" 
d="M475 726h19q-13 -63 -31 -93q-28 -46 -80 -46q-22 0 -63.5 9.5t-62.5 9.5q-34 0 -63 -24q-88 -72 -106 -238q65 121 188 121q82 0 116 -47q29 -40 29 -125q0 -64 -22 -120q-29 -74 -84 -125q-63 -60 -134 -60q-155 0 -155 195q0 74 32 188q36 130 90 213q66 101 142 101
q17 0 49 -5t48 -5q40 0 55 7q21 10 33 44zM101 112q0 -108 69 -108q100 0 133 148q11 50 23 100q13 63 13 103q0 94 -68 94q-98 0 -134 -159l-29 -129q-2 -7 -5 -22q-2 -19 -2 -27z" />
    <glyph glyph-name="afii10067" unicode="&#x432;" horiz-adv-x="413" 
d="M254 257q61 0 85 -12q35 -18 35 -73q0 -77 -70 -132q-65 -52 -144 -52q-68 0 -103 46q-31 41 -31 112q0 88 43 169.5t117 123.5q46 26 98 26q90 0 90 -82q0 -27 -24 -61t-95 -62zM130 207q-23 -103 -23 -129q0 -30 14 -50q16 -24 44 -24q82 0 105 116q9 46 9 67
q0 57 -42 57q-16 0 -33 -7zM134 227l75 28q43 16 60 37q13 15 21 55q12 56 12 64q0 38 -35 38q-56 0 -94 -88q-11 -28 -39 -134z" />
    <glyph glyph-name="afii10068" unicode="&#x433;" horiz-adv-x="362" 
d="M296 162l18 -10q-88 -163 -208 -163q-43 0 -68 26t-25 70q0 60 82 130q23 19 132 119q26 24 26 49q0 66 -45 66q-35 0 -75 -39q-31 -30 -55 -70l-13 10q71 115 150 115q43 0 75.5 -25t32.5 -67q0 -56 -38 -94l-158 -157q-34 -34 -34 -79q0 -7 8 -21t32 -14q76 0 163 154z
" />
    <glyph glyph-name="afii10069" unicode="&#x434;" horiz-adv-x="483" 
d="M353 344h1q29 132 29 172q0 73 -13 109q-22 59 -82 59q-91 0 -162 -148l-14 13q40 91 90 125t97 34q40 0 66 -8q56 -17 76 -103q10 -47 10 -138q0 -112 -40 -227q-43 -126 -116 -196q-50 -48 -112 -48q-157 0 -157 187q0 104 65 193q71 97 171 97q47 0 71 -39
q20 -32 20 -82zM102 105q0 -42 18 -69q21 -32 61 -32q87 0 119 144q11 49 22 99.5t11 96.5q0 105 -76 105q-86 0 -120.5 -158t-34.5 -186z" />
    <glyph glyph-name="afii10070" unicode="&#x435;" horiz-adv-x="419" 
d="M344 86q-75 -98 -170 -98q-148 0 -148 179q0 113 65 201q72 97 181 97q50 0 80 -28.5t30 -78.5q0 -63 -46 -95q-29 -21 -103 -40l-114 -29q-17 -73 -17 -93q0 -38 21 -65q23 -30 60 -30q26 0 68 20t80 74zM273 449q-16 0 -37 -15q-75 -54 -99 -161l-14 -62l97 27
q47 13 74 107q13 45 13 67q0 37 -34 37z" />
    <glyph glyph-name="afii10072" unicode="&#x436;" horiz-adv-x="809" 
d="M378 0h-81l56 239q-37 -3 -78 -58q-14 -28 -42 -80q-26 -45 -62 -75q-44 -37 -87 -37q-41 0 -58 28.5t-17 56.5q0 29 15 49.5t43 20.5q25 0 38.5 -19.5t13.5 -45.5q0 -24 -19.5 -35.5t-19.5 -26.5q0 -12 14 -12q30 0 50 48q8 21 21 74l38 161q13 55 13 103q0 22 -10 38
q-12 20 -33 20q-47 0 -97 -99q-7 -11 -22 -34l-11 12q35 66 56 90q40 47 88 47q57 0 86 -63q22 -48 22 -113q0 -27 -11 -66q32 29 72 31l46 199h79l-45 -199q19 0 47.5 22.5t37.5 41.5q28 58 72 98q53 49 108 49q39 0 62 -25.5t23 -64.5q0 -25 -16.5 -41t-41.5 -16
q-49 0 -49 53q0 23 16 39t16 22q0 16 -22 16q-55 0 -95 -168l-31 -131q-5 -21 -5 -82q0 -36 18 -50t34 -14q37 0 85 55q34 39 62 89l11 -11q-80 -147 -164 -147q-55 0 -89 56q-30 49 -30 107q0 44 15 110q-33 -23 -68 -23z" />
    <glyph glyph-name="afii10073" unicode="&#x437;" horiz-adv-x="392" 
d="M91 317h-18l33 148h17q6 -23 23 -23q20 0 52 11.5t55 11.5q53 0 78 -18q29 -20 29 -71q0 -105 -113 -120v-2q89 -9 89 -108q0 -76 -59 -119q-53 -39 -131 -39q-55 0 -94 31.5t-39 85.5q0 31 19 50t50 19q47 0 47 -64q0 -30 -23 -45t-23 -27q0 -7 10 -20.5t44 -13.5
q69 0 91 97q15 67 15 79q0 18 -9 36q-12 25 -41 30q-7 1 -54 1l4 17q68 0 82 6q26 12 38 66t12 85q0 28 -31 28q-81 0 -153 -132z" />
    <glyph glyph-name="afii10074" unicode="&#x438;" horiz-adv-x="492" 
d="M430 99l15 -13q-48 -97 -114 -97q-60 0 -60 70q0 18 13 79q-31 -54 -78 -96q-59 -53 -108 -53q-73 0 -73 97q0 19 8 55l66 297h-77l3 15h161l-74 -340q-5 -23 -5 -50q0 -36 30 -36q53 0 122 104q34 51 38 68l55 239h-57l2 15h173l-2 -15h-30l-85 -376q-3 -13 -3 -22
q0 -20 12 -20q7 0 13 2q18 6 55 77z" />
    <glyph glyph-name="afii10075" unicode="&#x439;" horiz-adv-x="492" 
d="M437 438l-84 -376q-4 -18 -4 -22q0 -20 13 -20q15 0 68 77l13 -11q-24 -46 -43 -66q-30 -31 -70 -31q-60 0 -60 70q0 9 14 79q-35 -56 -78 -96q-58 -53 -108 -53q-74 0 -74 97q0 19 8 55l66 297h-85l2 15h171l-74 -340q-5 -23 -5 -50q0 -36 30 -36q53 0 122 104
q34 51 38 68l55 239h-50l3 15h164l-3 -15h-29zM426 678l11 -15q-103 -131 -185 -131q-37 0 -60 24t-23 61q0 28 16.5 46t44.5 18q25 0 39 -16.5t14 -41.5q0 -34 -19.5 -43t-19.5 -15q0 -15 15 -15q34 0 92 50q42 37 75 78z" />
    <glyph glyph-name="afii10076" unicode="&#x43a;" horiz-adv-x="468" 
d="M199 453l-44 -194q9 5 39 5q5 0 15.5 -1t15.5 -1q39 0 53 53q12 48 24 97q19 53 70 53q40 0 55 -24t15 -48q0 -25 -14.5 -43.5t-38.5 -18.5q-23 0 -37 14.5t-14 37.5q0 12 7 19.5t8 11.5t1 20q0 4 -13 4q-16 0 -34 -65q-9 -42 -19 -83q-9 -29 -36 -35v-4q45 -10 63 -31
q22 -26 22 -58v-32q0 -17 -6.5 -50.5t-6.5 -50.5q0 -9 6 -9q20 0 52 50q24 38 36 70l18 -5q-20 -56 -51 -94q-41 -52 -87 -52q-60 0 -60 101q0 11 4 28q4 23 5 29t7 30q4 20 4 32q0 27 -13 32t-20 5q-14 0 -26 -5.5t-25 -5.5q-14 0 -21 4l-56 -239h-84l100 438h-88l4 15h170
z" />
    <glyph glyph-name="afii10077" unicode="&#x43b;" horiz-adv-x="479" 
d="M331 436h-34q-25 0 -38 -6.5t-23.5 -27.5t-23.5 -65l-33 -114q-26 -89 -38 -121q-32 -86 -63 -104q-17 -10 -40 -10q-30 0 -47 19.5t-17 49.5q0 28 15 48t42 20q43 0 43 -53q0 -20 -14.5 -33t-14.5 -22q0 -13 11 -13q23 0 47 50q17 35 55 169q40 138 40 169q0 35 -17 42
q-6 2 -52 2l4 17h325l-2 -17h-40l-84 -374q-3 -13 -3 -22q0 -20 17 -20q15 0 67 78l16 -12q-55 -98 -118 -98q-62 0 -62 71q0 17 11 65z" />
    <glyph glyph-name="afii10078" unicode="&#x43c;" horiz-adv-x="653" 
d="M323 129l183 324h127l-3 -17h-39l-85 -374q-2 -9 -2 -22q0 -20 16 -20q22 0 69 77l14 -11q-52 -97 -117 -97q-59 0 -59 70q0 30 18 110l52 230l-226 -410h-13l-32 399l-102 -320q-25 -79 -85 -79q-29 0 -47 19t-18 49q0 27 15.5 48t41.5 21q43 0 43 -52
q0 -17 -15.5 -32.5t-15.5 -22.5q0 -13 14 -13q17 0 29 17q14 21 45 119l25 82l48 153q4 13 4 31q0 28 -41 28h-38l3 17h167z" />
    <glyph glyph-name="afii10079" unicode="&#x43d;" horiz-adv-x="490" 
d="M424 96l16 -10q-23 -46 -42 -66q-30 -31 -70 -31q-60 0 -60 64q0 34 9 71l29 120q-26 0 -53 -9.5t-52 -18.5q-21 -6 -56 -6l-48 -210h-84l100 438h-88l4 15h170l-50 -223q33 0 58.5 10t51.5 20q16 5 51 5l39 173h-47l3 15h162l-3 -15h-29l-86 -376q-2 -9 -2 -22
q0 -20 15 -20q25 0 62 76z" />
    <glyph glyph-name="afii10080" unicode="&#x43e;" horiz-adv-x="452" 
d="M167 -12q-141 0 -141 152q0 99 36 178q42 91 123 130q44 21 87 21q141 0 141 -156q0 -101 -35 -178q-41 -92 -124 -128q-44 -19 -87 -19zM111 97q0 -91 62 -91q89 0 137 221q18 83 18 133q0 90 -61 90q-45 0 -77 -44q-26 -36 -63 -181q-16 -63 -16 -128z" />
    <glyph glyph-name="afii10081" unicode="&#x43f;" horiz-adv-x="498" 
d="M199 453l-31 -135q84 147 190 147q73 0 73 -86q0 -27 -10 -67l-63 -250q-3 -12 -3 -22q0 -20 12 -20q27 0 68 78l14 -12q-24 -46 -43 -66q-30 -31 -70 -31q-60 0 -60 70q0 26 10 65l55 215q7 27 7 49q0 15 -9.5 26.5t-24.5 11.5q-57 0 -129 -116q-27 -44 -30 -56
l-58 -254h-84l100 438h-88l4 15h170z" />
    <glyph glyph-name="afii10082" unicode="&#x440;" horiz-adv-x="480" 
d="M176 363q29 47 47 67q34 35 70 35q86 0 121 -65q26 -49 26 -144q0 -99 -54 -178q-62 -90 -156 -90q-48 0 -76 37q-26 34 -26 83h-1l-53 -258q-4 -19 -4 -27q0 -19 15 -23q5 -2 31 -2l-3 -16h-79q-27 0 -35 2q-20 5 -20 23q0 6 6 34l128 597h-88l3 15h170zM220 6
q77 0 107 158l22 115q5 26 5 52q0 118 -60 118q-32 0 -69 -42q-30 -33 -47 -96q-6 -19 -22 -105q-9 -47 -9 -76q0 -47 14 -79q19 -45 59 -45z" />
    <glyph glyph-name="afii10083" unicode="&#x441;" horiz-adv-x="426" 
d="M327 289q-51 0 -51 54q0 24 15 42.5t15 31.5q0 32 -37 32q-31 0 -69.5 -39.5t-58.5 -130.5q-29 -134 -29 -170q0 -103 76 -103q67 0 123 93l12 -13q-61 -98 -145 -98q-152 0 -152 188q0 118 62 199q69 90 183 90q49 0 78 -24q32 -27 32 -75q0 -77 -54 -77z" />
    <glyph glyph-name="afii10084" unicode="&#x442;" horiz-adv-x="736" 
d="M199 453l-31 -136q34 56 77 95q57 53 106 53q71 0 71 -86q0 -31 -6 -55h2q30 51 76 91q56 50 103 50q72 0 72 -86q0 -23 -11 -67l-62 -250q-2 -8 -2 -22q0 -20 15 -20q12 0 21 11q43 54 63 113l18 -9q-60 -146 -136 -146q-60 0 -60 70q0 30 9 65l56 215q5 19 5 49
q0 15 -9.5 26.5t-23.5 11.5q-33 0 -78 -52q-35 -41 -55 -83q-9 -18 -19 -37l-57 -254h-86l77 339q6 26 6 43q0 16 -8.5 30t-23.5 14q-26 0 -63 -35q-29 -28 -48 -59q-39 -64 -42 -78l-57 -254h-85l100 438h-88l4 15h170z" />
    <glyph glyph-name="afii10085" unicode="&#x443;" horiz-adv-x="465" 
d="M24 -223q-27 0 -43.5 16.5t-16.5 43.5q0 22 12 39.5t33 17.5q38 0 38 -45q0 -11 -9.5 -24t-9.5 -21q0 -4 15 -4q46 0 93 75q20 32 57 114l-53 374q-8 58 -28 58q-8 0 -32.5 -24.5t-42.5 -70.5l-18 9q27 67 66 99t71 32q57 0 68 -74l36 -253l91 210q51 117 101 117
q20 0 32.5 -14t12.5 -35q0 -20 -10.5 -37t-29.5 -17q-33 0 -33 30q0 7 3.5 15t3.5 9q0 4 -6 4q-18 0 -59 -92l-108 -242q-29 -65 -51 -120q-49 -124 -103 -165q-32 -25 -80 -25z" />
    <glyph glyph-name="afii10086" unicode="&#x444;" horiz-adv-x="698" 
d="M206 -197q0 8 5 30l61 273q-63 -118 -147 -118q-59 0 -79 39.5t-20 125.5q0 108 55 202q64 110 164 110q78 0 82 -120l74 325h-69l3 14h150l-78 -354q63 135 142 135q66 0 91 -51q19 -37 19 -110q0 -113 -51 -205q-61 -111 -165 -111q-74 0 -87 110l-57 -266
q-4 -19 -4 -20q0 -8 5 -11t47 -3l-4 -16h-97q-40 0 -40 21zM369 120q0 -40 16 -74q20 -42 55 -42q64 0 98 149q38 165 38 230q0 60 -42 60q-18 0 -40 -19q-76 -65 -104 -180q-21 -87 -21 -124zM101 66q0 -62 36 -62q22 0 47 20q34 28 64.5 74.5t40.5 87.5q21 85 21 126
q0 129 -54 129q-72 0 -103 -135l-38 -167q-14 -62 -14 -73z" />
    <glyph glyph-name="afii10087" unicode="&#x445;" horiz-adv-x="531" 
d="M451 98l12 -12q-37 -55 -64 -74q-34 -24 -93 -24q-61 0 -75 106l-11 81l-46 -79q-63 -108 -116 -108q-39 0 -56 29t-17 57q0 26 16 46.5t42 20.5q21 0 36 -17t15 -38q0 -23 -17 -41t-17 -29q0 -10 13 -10q24 0 58.5 57t83.5 138l-19 152q-7 56 -13.5 69.5t-20.5 13.5
q-21 0 -85 -84l-11 11q67 102 130 102q79 0 88 -86l8 -80q83 166 147 166q31 0 54 -21t23 -51q0 -24 -13.5 -46t-36.5 -22q-52 0 -52 56q0 16 12 29t12 23q0 14 -7 14q-49 0 -136 -174l24 -179q5 -37 9 -49q10 -29 34 -29q33 0 89 82z" />
    <glyph glyph-name="afii10088" unicode="&#x446;" horiz-adv-x="473" 
d="M25 453h162l-75 -340q-4 -18 -4 -50q0 -36 30 -36q54 0 122 104q33 51 37 68l56 239h-57l4 15h173l-4 -15h-30l-80 -352q-7 -31 -7 -46q0 -20 15 -20q29 0 64 66l15 -1q-19 -59 -19 -91q0 -13 2 -37.5t2 -37.5q0 -27 -10 -54q-19 -52 -57 -70q-28 -13 -89 -13l1 13
q56 0 66 42q6 43 11 86q6 22 20 38q21 23 26.5 33t14.5 35q-38 -40 -82 -40q-60 0 -60 67q0 22 13 82q-31 -54 -78 -96q-59 -53 -108 -53q-74 0 -74 97q0 15 9 55l67 297h-79z" />
    <glyph glyph-name="afii10089" unicode="&#x447;" horiz-adv-x="442" 
d="M415 453l-4 -15h-24l-78 -341q-10 -44 -10 -54q0 -23 16 -23q8 0 26.5 18.5t34.5 57.5l16 -10q-24 -47 -45 -67q-30 -30 -72 -30q-57 0 -57 66q0 21 11 69l27 117q-61 -103 -147 -103q-80 0 -80 85q0 15 9 50l42 165h-67l3 15h149l-51 -223q-3 -13 -3 -33q0 -30 26 -30
q33 0 81 55q45 51 53 86l31 130h-50l3 15h160z" />
    <glyph glyph-name="afii10090" unicode="&#x448;" horiz-adv-x="715" 
d="M658 438l-84 -376q-3 -13 -3 -22q0 -20 17 -20q30 0 61 78l19 -12q-51 -97 -114 -97q-62 0 -62 70q0 15 5 36q6 28 7 35q-28 -52 -67 -91q-50 -50 -95 -50q-74 0 -74 97q0 19 5 42q-26 -49 -68 -89q-51 -50 -95 -50q-76 0 -76 97q0 15 9 55l67 297h-76l3 15h159l-75 -331
q-4 -18 -4 -50q0 -38 32 -38q44 0 105 106q28 49 32 66l54 232h-57l3 15h171l-3 -15h-27l-72 -316q-5 -22 -5 -50q0 -38 32 -38q47 0 106 106q27 48 31 66l54 232h-56l3 15h170l-3 -15h-29z" />
    <glyph glyph-name="afii10091" unicode="&#x449;" horiz-adv-x="715" 
d="M37 453h159l-75 -331q-4 -18 -4 -50q0 -38 32 -38q44 0 105 106q28 49 32 66l54 232h-57l3 15h171l-3 -15h-27l-72 -316q-5 -22 -5 -50q0 -38 32 -38q47 0 106 106q27 48 31 66l54 232h-56l3 15h172l-3 -15h-31l-79 -352q-8 -36 -8 -46q0 -20 16 -20q30 0 63 66l16 -1
q-20 -56 -20 -91q0 -13 2 -37.5t2 -37.5q0 -26 -10 -54q-18 -52 -57 -70q-29 -13 -89 -13l1 13q57 0 67 42q5 43 11 86q6 20 20 37q21 27 25 33q8 13 16 36q-38 -40 -82 -40q-60 0 -60 70q0 15 5 36q6 28 7 35q-28 -52 -67 -91q-50 -50 -95 -50q-74 0 -74 97q0 19 5 42
q-26 -49 -68 -89q-51 -50 -95 -50q-76 0 -76 97q0 15 9 55l67 297h-76z" />
    <glyph glyph-name="afii10092" unicode="&#x44a;" horiz-adv-x="451" 
d="M-3 335l-12 7q20 122 97 122q25 0 51 -14.5t38 -14.5q57 0 148 40l6 -11q-94 -128 -122 -203q46 57 101 57q104 0 104 -113q0 -95 -57 -156t-151 -61q-59 0 -92 52q-28 45 -28 108q0 76 55 150q55 61 109 122q-68 -44 -123 -44q-11 0 -29 7.5t-28 7.5q-44 0 -67 -56z
M284 295q-12 0 -34 -12q-28 -15 -54 -65q-24 -44 -30 -81q-7 -41 -7 -64q0 -69 41 -69q26 0 57 27q25 21 38 66q4 16 15 77t11 74q0 47 -37 47z" />
    <glyph glyph-name="afii10093" unicode="&#x44b;" horiz-adv-x="604" 
d="M108 438h-90l6 15h169l-48 -205q43 70 117 70q99 0 99 -98q0 -64 -27 -119q-29 -58 -82 -89q-40 -24 -98 -24q-115 0 -115 124q0 29 11 76zM239 293q-55 0 -101 -96q-10 -21 -19 -65.5t-9 -69.5q0 -58 52 -58q58 0 82 90q10 37 21 75q11 44 11 77q0 47 -37 47zM409 453
h171l-2 -15h-28l-76 -336q-13 -57 -13 -64q0 -18 16 -18q25 0 61 77l17 -11q-48 -98 -112 -98q-34 0 -48 22.5t-14 42.5q0 23 11 71l72 314h-57z" />
    <glyph glyph-name="afii10094" unicode="&#x44c;" horiz-adv-x="400" 
d="M24 453h169l-48 -205q43 70 117 70q99 0 99 -98q0 -64 -27 -119q-29 -58 -82 -89q-40 -24 -98 -24q-115 0 -115 124q0 29 11 76l58 250h-90zM239 293q-55 0 -101 -96q-10 -21 -19 -65.5t-9 -69.5q0 -58 52 -58q58 0 82 90q10 37 21 75q11 44 11 77q0 47 -37 47z" />
    <glyph glyph-name="afii10095" unicode="&#x44d;" horiz-adv-x="404" 
d="M110 206l-14 13q34 56 76 56q15 0 33 -16.5t29 -16.5q10 0 34 11q14 66 14 107q0 35 -19.5 61.5t-53.5 26.5q-41 0 -77 -47q-29 -36 -44 -84h-19l29 148h20q0 -6 6 -14t12 -8q9 0 32 11t44 11q74 0 115 -47q38 -45 38 -120q0 -122 -62 -210q-69 -100 -186 -100
q-48 0 -74 29.5t-26 78.5q0 61 54 61q42 0 42 -55q0 -19 -18 -35t-18 -22q0 -41 41 -41q36 0 74 39q26 27 46 90q6 18 26 99q-36 -25 -48 -25q-17 0 -37.5 15.5t-32.5 15.5q-17 0 -36 -32z" />
    <glyph glyph-name="afii10096" unicode="&#x44e;" horiz-adv-x="640" 
d="M356 -12q-143 0 -143 152q0 48 10 90h-74l-52 -230h-85l101 438h-88l4 15h170l-46 -209h72q21 92 80 154q66 71 154 71q142 0 142 -156q0 -101 -35 -178q-41 -92 -123 -128q-44 -19 -87 -19zM298 97q0 -91 63 -91q87 0 136 221q19 86 19 133q0 90 -61 90q-45 0 -77 -44
q-27 -37 -55 -149q-25 -105 -25 -160z" />
    <glyph glyph-name="afii10097" unicode="&#x44f;" horiz-adv-x="453" 
d="M260 220h-24q-35 0 -51 -14q-25 -22 -47 -102q-21 -75 -63 -102q-20 -13 -51 -13q-51 0 -60 52l16 8q11 -39 23 -39q31 0 44 78q19 111 143 141v5q-114 6 -114 97q0 65 68 97q52 25 125 25h158l-3 -15h-29l-75 -337q-11 -49 -11 -63q0 -18 15 -18q25 0 64 78l13 -12
q-22 -50 -40 -69q-27 -28 -72 -28q-60 0 -60 70q0 19 31 161zM265 235l46 203h-47q-79 0 -100 -109q-4 -21 -4 -28q0 -29 18 -47.5t47 -18.5h40z" />
    <glyph glyph-name="afii10071" unicode="&#x451;" horiz-adv-x="406" 
d="M228 655q34 0 34 -30q0 -32 -16 -59q-19 -31 -49 -31q-37 0 -37 30q0 35 16 60q19 30 52 30zM385 654q36 0 36 -30q0 -34 -16 -60q-18 -30 -50 -30q-36 0 -36 29q0 37 14 61q18 30 52 30zM344 86q-75 -98 -170 -98q-148 0 -148 179q0 113 65 201q72 97 181 97
q50 0 80 -28.5t30 -78.5q0 -63 -46 -95q-29 -21 -103 -40l-114 -29q-17 -73 -17 -93q0 -38 21 -65q23 -30 60 -30q26 0 68 20t80 74zM273 449q-16 0 -37 -15q-75 -54 -99 -161l-14 -62l97 27q47 13 74 107q13 45 13 67q0 37 -34 37z" />
    <glyph glyph-name="endash" unicode="&#x2013;" horiz-adv-x="443" 
d="M13 359h417v-45h-417v45z" />
    <glyph glyph-name="emdash" unicode="&#x2014;" horiz-adv-x="883" 
d="M56 262l5 35h787l-7 -35h-785z" />
    <glyph glyph-name="quoteleft" unicode="&#x2018;" horiz-adv-x="235" 
d="M257 773l12 -18q-53 -42 -79 -84t-26 -54q0 -21 10 -21q3 0 9.5 1t9.5 1q40 0 40 -56q0 -59 -55 -59t-55 80q0 102 134 210z" />
    <glyph glyph-name="quoteright" unicode="&#x2019;" horiz-adv-x="235" 
d="M97 421l-12 18q36 28 67 65q40 49 40 80q0 15 -13 15q-3 0 -8.5 -1t-8.5 -1q-12 0 -26 11t-14 44q0 59 53 59q57 0 57 -80q0 -54 -45 -118q-39 -54 -90 -92z" />
    <glyph glyph-name="quotesinglbase" unicode="&#x201a;" horiz-adv-x="375" 
d="M73 -184l-8 19q35 27 66 65q39 49 39 80q0 15 -12 15q-3 0 -9 -1.5t-9 -1.5q-9 0 -25 12t-16 44q0 59 56 59q54 0 54 -79q0 -56 -45 -119q-37 -53 -91 -93z" />
    <glyph glyph-name="quotedblleft" unicode="&#x201c;" horiz-adv-x="443" 
d="M448 773l11 -18q-34 -27 -66 -66q-40 -49 -40 -80q0 -13 13 -13q3 0 8.5 1t8.5 1q39 0 39 -56q0 -59 -53 -59q-55 0 -55 80q0 105 134 210zM257 773l12 -18q-53 -42 -79 -84t-26 -54q0 -21 10 -21q3 0 9.5 1t9.5 1q40 0 40 -56q0 -59 -55 -59t-55 80q0 102 134 210z" />
    <glyph glyph-name="quotedblright" unicode="&#x201d;" horiz-adv-x="443" 
d="M119 421l-11 18q31 24 64 63q41 49 41 75v11q0 11 -11 11q-3 0 -8.5 -1t-8.5 -1q-41 0 -41 55q0 59 55 59q54 0 54 -80q0 -54 -45 -118q-38 -54 -89 -92zM310 421l-12 18q33 24 65 64q41 50 41 79q0 17 -11 17q-3 0 -9.5 -1t-9.5 -1q-41 0 -41 55q0 26 15.5 42.5
t40.5 16.5q55 0 55 -80q0 -102 -134 -210z" />
    <glyph glyph-name="quotedblbase" unicode="&#x201e;" horiz-adv-x="566" 
d="M73 -184l-8 19q35 27 66 65q39 49 39 80q0 15 -12 15q-3 0 -9 -1.5t-9 -1.5q-9 0 -25 12t-16 44q0 59 56 59q54 0 54 -79q0 -56 -45 -119q-37 -53 -91 -93zM267 -184l-13 19q35 25 68 66q39 50 38 83q-6 11 -10 11q-3 0 -10 -1.5t-10 -1.5q-40 0 -40 56q0 59 56 59
q54 0 54 -79q0 -54 -45 -118q-36 -52 -88 -94z" />
    <glyph glyph-name="dagger" unicode="&#x2020;" horiz-adv-x="524" 
d="M267 370v37q-6 1 -14 1q-27 0 -75.5 -23.5t-68.5 -23.5q-53 0 -53 54q0 25 10 44q12 23 34 23q27 0 80 -22q18 -8 45 -14.5t30 -6.5q4 0 12 2q0 63 -25 157q-10 38 -10 68q0 23 16 37.5t40 14.5q44 0 44 -61q0 -25 -19 -90t-19 -111v-15q7 -2 13 -2q7 0 31 7q14 4 42 13
q7 4 22 10q34 13 58 13q45 0 45 -67q0 -54 -52 -54q-21 0 -69 23.5t-75 23.5q-8 0 -15 -1v-37q0 -120 10 -189q7 -34 19 -102q10 -80 10 -226q0 -95 -47 -95q-52 0 -52 95q0 65 18 237q15 143 15 280z" />
    <glyph glyph-name="bullet" unicode="&#x2022;" horiz-adv-x="443" 
d="M131 375q0 41 25.5 73t65.5 32t65 -32t25 -73q0 -42 -25 -73t-65 -31q-41 0 -66 31.5t-25 72.5z" />
    <glyph glyph-name="ellipsis" unicode="&#x2026;" horiz-adv-x="820" 
d="M62 49q0 58 52 58q23 0 36.5 -17t13.5 -41t-13.5 -40.5t-36.5 -16.5q-24 0 -38 16.5t-14 40.5zM327 49q0 24 13.5 41t37.5 17t38.5 -17t14.5 -41q0 -25 -14.5 -41t-38.5 -16q-23 0 -37 17t-14 40zM593 49q0 24 14.5 41t37.5 17t37 -17.5t14 -40.5t-14.5 -40t-36.5 -17
q-23 0 -37.5 17t-14.5 40z" />
    <glyph glyph-name="perthousand" unicode="&#x2030;" horiz-adv-x="1121" 
d="M311 714q50 0 78 -39q26 -34 26 -86q0 -72 -51 -137q-54 -70 -124 -70q-49 0 -77 37q-24 33 -24 84q0 75 48 140q52 71 124 71zM198 467q0 -69 47 -69q66 0 94 127q17 78 17 102q0 44 -15 58t-31 14q-46 0 -75 -68q-14 -33 -30 -106q-7 -32 -7 -58zM195 -12l-23 17
l465 711l24 -17zM587 322q49 0 77 -39q25 -34 25 -86q0 -74 -49 -138q-53 -69 -125 -69q-49 0 -76 37q-25 33 -25 84q0 73 49 139q54 72 124 72zM473 75q0 -70 47 -70q63 0 94 128q18 74 18 101q0 44 -15.5 57.5t-30.5 13.5q-65 0 -96 -127q-17 -69 -17 -103zM927 322
q49 0 77 -38q25 -35 25 -86q0 -74 -49 -138q-54 -70 -125 -70q-49 0 -77 37q-25 33 -25 84q0 73 50 140q53 71 124 71zM812 75q0 -70 48 -70q64 0 94 128q17 76 17 101q0 45 -15 58t-31 13q-64 0 -95 -127q-18 -74 -18 -103z" />
    <glyph glyph-name="guilsinglleft" unicode="&#x2039;" horiz-adv-x="358" 
d="M249 8l-10 -10q-68 130 -174 226q134 84 268 222l8 -9q-78 -114 -172 -214q52 -101 80 -215z" />
    <glyph glyph-name="guilsinglright" unicode="&#x203a;" horiz-adv-x="357" 
d="M108 437l10 9q70 -134 174 -222q-149 -97 -268 -226l-9 10q76 108 172 215q-51 100 -79 214z" />
    <glyph glyph-name="afii61352" unicode="&#x2116;" horiz-adv-x="965" 
d="M673 287q0 83 44.5 130.5t105.5 47.5q54 0 83 -51q25 -42 25 -100q0 -69 -44 -123q-47 -57 -115 -57q-31 0 -57 26q-23 23 -32.5 55t-9.5 72zM737 216q0 -63 46 -63q48 0 60 80l17 115q4 27 4 34q0 41 -15 52t-27 11q-49 0 -63 -85l-18 -107q-4 -24 -4 -37zM619 0l10 36
h258l-9 -36h-259zM558 174l77 371q17 82 30 109q28 57 87 57q39 0 64 -28.5t25 -67.5q0 -31 -14 -51q-16 -24 -45 -24q-56 0 -56 57q0 32 21.5 47.5t21.5 31.5q0 17 -24 17q-55 0 -78 -98q-5 -20 -14 -59l-112 -544h-15l-208 589l-91 -449q-13 -63 -32 -94q-29 -46 -82 -46
q-38 0 -60 25t-22 64q0 74 55 74q57 0 57 -61q0 -28 -14 -40q-7 -6 -26 -12q-14 -5 -14 -13q0 -19 32 -19q57 0 83 126l87 415q11 52 11 70q0 39 -18 51q-12 8 -56 11l4 20h144z" />
    <glyph glyph-name="trademark" unicode="&#x2122;" horiz-adv-x="869" 
d="M519 703l71 -205l76 205h89v-13q-22 0 -28 -3q-11 -6 -11 -25v-191q0 -19 11 -25q6 -3 28 -3v-13h-121v13q39 0 39 28v190l-91 -231h-8l-88 225v-184q0 -19 11 -24q8 -4 28 -4v-13h-100v13q21 0 28 3q12 6 12 25v190q0 29 -40 29v13h94zM147 612l6 91h225l6 -91h-13
q-7 78 -81 78v-219q0 -19 11 -24q8 -4 28 -4v-13h-127v13q21 0 28 3q11 6 11 25v219h-10q-64 0 -71 -78h-13z" />
    <glyph glyph-name="periodcentered" unicode="&#xb7;" horiz-adv-x="173" 
d="M38 338q0 24 13 41t36 17q48 0 48 -58q0 -24 -12.5 -41t-35.5 -17q-49 0 -49 58z" />
    <glyph glyph-name="periodcentered" unicode="&#x2219;" horiz-adv-x="173" 
d="M38 338q0 24 13 41t36 17q48 0 48 -58q0 -24 -12.5 -41t-35.5 -17q-49 0 -49 58z" />
    </font>
</defs>
</svg>
